<?xml version="1.0" standalone="no"?>
<!DOCTYPE svg PUBLIC "-//W3C//DTD SVG 20010904//EN"
 "http://www.w3.org/TR/2001/REC-SVG-20010904/DTD/svg10.dtd">
<svg version="1.0" xmlns="http://www.w3.org/2000/svg"
 width="582.000000pt" height="154.000000pt" viewBox="0 0 582.000000 154.000000"
 preserveAspectRatio="xMidYMid meet">

<g transform="translate(0.000000,154.000000) scale(0.100000,-0.100000)"
fill="#000000" stroke="none">
<path d="M1950 1300 l0 -240 140 0 141 0 -16 30 -16 30 -95 0 c-143 0 -134
-15 -134 220 0 127 -4 200 -10 200 -6 0 -10 -87 -10 -240z m153 -191 c90 -1
95 -3 84 -19 -9 -15 -13 -16 -21 -5 -11 15 -170 24 -183 11 -3 -3 36 -7 88 -8
l94 -2 -95 -6 c-100 -6 -128 1 -96 25 10 8 22 12 26 10 4 -2 50 -5 103 -6z
m107 -23 c0 -3 -4 -8 -10 -11 -5 -3 -10 -1 -10 4 0 6 5 11 10 11 6 0 10 -2 10
-4z"/>
<path d="M3622 1372 c3 -144 1 -173 -12 -177 -8 -4 -16 -1 -18 4 -2 6 -8 11
-13 11 -6 0 -7 -5 -3 -11 3 -6 0 -15 -7 -20 -11 -7 -10 -9 4 -9 10 0 20 -6 23
-13 3 -8 19 -14 37 -14 18 0 26 2 18 5 -10 3 -10 6 -1 12 6 4 13 13 14 21 2 8
6 21 10 29 3 9 5 88 3 175 l-3 160 -2 -168 c-1 -112 -5 -166 -12 -162 -6 4 -9
1 -8 -6 2 -6 -2 -13 -9 -16 -8 -3 -12 42 -13 169 0 94 -3 174 -6 177 -3 3 -4
-72 -2 -167z m11 -201 c-4 -3 -11 -10 -14 -14 -3 -4 -12 -1 -19 8 -11 13 -10
14 5 9 13 -5 16 -4 11 4 -5 8 -2 10 9 5 9 -3 13 -9 8 -12z"/>
<path d="M1497 1202 c-17 -18 -14 -32 7 -32 6 0 4 5 -4 10 -12 8 -9 10 13 10
22 0 27 -4 27 -26 0 -15 4 -23 11 -19 6 4 8 13 5 20 -7 20 19 37 59 38 57 2
16 17 -46 17 -42 0 -60 -5 -72 -18z m63 -2 c0 -5 -4 -10 -10 -10 -5 0 -10 5
-10 10 0 6 5 10 10 10 6 0 10 -4 10 -10z"/>
<path d="M2630 1206 c0 -16 -37 -28 -46 -15 -3 5 5 10 18 10 14 1 17 3 7 6 -8
2 -29 -2 -45 -8 -16 -7 -32 -12 -36 -11 -5 1 -8 -2 -8 -7 0 -15 32 -23 44 -11
8 8 5 9 -9 5 -16 -5 -17 -5 -5 3 18 13 31 5 28 -16 -2 -12 5 -17 26 -17 15 -1
30 5 33 11 6 16 62 36 76 27 6 -4 3 -10 -9 -15 -18 -8 -18 -8 1 -5 11 1 25 -4
32 -13 11 -13 12 -13 13 3 0 9 4 17 10 17 5 0 7 -8 3 -17 -5 -15 -3 -16 8 -5
7 6 20 12 29 12 13 0 13 -2 0 -11 -13 -9 -13 -10 0 -6 8 2 14 10 13 16 -2 6 2
11 7 11 6 0 10 -5 10 -12 0 -6 3 -8 7 -4 5 4 1 13 -8 19 -9 7 -18 17 -20 22
-2 6 -14 10 -26 10 -11 0 -25 3 -29 8 -4 4 -34 7 -66 7 -43 0 -58 -4 -58 -14z
m60 -7 c0 -5 -7 -9 -15 -9 -8 0 -23 -8 -33 -17 -10 -10 -29 -19 -41 -21 -20
-2 -22 0 -11 13 7 8 16 12 22 9 10 -6 40 15 34 25 -2 3 7 7 20 7 13 1 24 -2
24 -7z m40 -1 c0 -10 3 -9 9 1 6 9 11 10 15 2 4 -6 17 -9 29 -7 12 1 15 1 7
-2 -12 -4 -11 -6 5 -12 14 -6 7 -8 -23 -7 -31 1 -46 7 -53 19 -6 12 -6 18 1
18 5 0 10 -6 10 -12z"/>
<path d="M3441 1210 c9 -5 33 -8 53 -7 20 2 36 2 36 -1 0 -7 -29 -32 -38 -32
-6 0 -13 -7 -16 -16 -6 -17 6 -12 37 14 18 16 24 4 7 -16 -7 -9 -7 -9 2 -2 14
12 31 13 25 3 -3 -5 6 -9 20 -10 24 -1 24 -1 -5 17 -23 14 -29 24 -25 39 5 19
1 21 -53 21 -42 -1 -54 -3 -43 -10z"/>
<path d="M4274 1205 c-4 -8 -10 -15 -16 -15 -5 0 -6 5 -3 10 3 6 0 10 -8 10
-7 0 -14 -6 -14 -14 0 -11 12 -13 50 -7 5 0 5 6 2 11 -3 6 -1 10 4 10 22 0 10
-30 -13 -36 -32 -8 -62 -1 -58 14 1 7 -2 12 -8 12 -5 0 -10 -5 -10 -11 0 -5
-4 -8 -8 -5 -5 3 -9 -1 -9 -9 0 -11 4 -12 14 -4 8 7 13 8 13 1 0 -21 -25 -31
-44 -16 -13 9 -15 14 -6 14 7 0 11 3 8 6 -10 10 -58 -27 -58 -45 0 -10 -3 -12
-8 -4 -5 7 -18 0 -42 -23 l-34 -34 93 0 c64 0 90 3 85 11 -3 6 -19 9 -35 5
-22 -4 -27 -2 -23 9 4 8 11 12 16 8 7 -4 9 4 6 21 -5 25 -5 26 12 9 12 -13 14
-21 6 -26 -7 -6 -4 -7 7 -3 10 3 23 6 28 6 5 0 8 10 8 23 -1 16 -2 18 -6 5 -5
-20 -24 -25 -20 -5 4 20 20 27 36 14 12 -9 13 -9 7 1 -4 7 -1 12 8 12 9 0 16
-4 16 -8 0 -4 9 -8 20 -8 11 0 20 4 20 8 0 5 9 4 19 -2 11 -5 26 -10 33 -10 7
1 0 7 -17 14 -16 7 -39 11 -50 8 -19 -4 -19 -4 -1 10 10 8 30 13 45 12 17 -2
19 -1 6 2 -30 9 -38 20 -12 19 25 -2 77 -22 77 -30 0 -4 -5 -3 -10 0 -6 3 -20
3 -32 -1 l-23 -7 25 -9 c47 -19 118 -17 136 4 14 14 14 18 3 18 -11 0 -11 2
-2 8 12 8 -13 11 -94 14 -18 0 -30 5 -27 9 3 5 -20 9 -51 9 -40 0 -57 -4 -61
-15z m176 -20 c8 -7 23 -11 33 -10 18 3 23 -10 7 -20 -5 -3 -10 0 -11 7 0 11
-2 11 -6 0 -4 -10 -9 -9 -20 5 -11 13 -13 14 -10 3 3 -10 -2 -16 -14 -16 -24
0 -24 12 -1 26 16 11 16 11 0 6 -10 -3 -20 -2 -22 3 -8 13 28 9 44 -4z m-303
-39 c-3 -8 -2 -16 2 -18 4 -2 -3 -14 -17 -28 -13 -14 -22 -20 -18 -14 3 7 -1
14 -9 17 -9 4 -12 1 -9 -7 4 -9 -3 -13 -21 -13 l-26 0 23 16 c13 9 26 15 30
13 4 -1 15 9 24 23 18 27 29 33 21 11z"/>
<path d="M5133 1210 c9 -6 27 -9 40 -5 20 5 20 5 -3 -10 -25 -15 -25 -15 13
-9 26 4 37 3 37 -6 0 -10 -15 -11 -60 -7 -41 5 -60 3 -60 -4 0 -6 7 -9 15 -6
8 4 17 2 21 -4 3 -5 14 -7 24 -4 9 3 34 6 54 7 27 1 36 5 34 16 -2 8 -11 16
-21 18 -11 1 -22 5 -25 8 -6 7 24 2 48 -7 8 -3 22 -8 30 -10 12 -4 11 -6 -2
-6 -10 -1 -18 -5 -18 -11 0 -13 17 -13 25 0 4 6 11 8 16 4 6 -3 5 3 -2 13 -14
23 -13 23 -109 29 -57 3 -71 2 -57 -6z"/>
<path d="M1448 1203 c-10 -2 -18 -8 -18 -11 0 -4 -3 -18 -6 -32 -6 -21 -4 -23
7 -12 14 13 33 17 26 5 -3 -5 6 -9 19 -9 23 -2 24 -1 7 12 -10 7 -24 14 -30
14 -7 0 -13 4 -13 10 0 5 7 6 17 3 10 -4 14 -2 10 4 -4 6 -1 14 5 16 16 7 0 6
-24 0z"/>
<path d="M1660 1200 c0 -5 4 -10 10 -10 5 0 8 -6 6 -12 -1 -7 -1 -10 1 -5 3 4
9 7 14 7 6 0 8 -4 4 -9 -3 -5 -2 -12 3 -15 4 -2 8 6 8 19 0 13 -3 22 -7 19 -4
-2 -10 0 -14 6 -8 13 -25 13 -25 0z"/>
<path d="M3340 1189 c-24 -11 -48 -25 -52 -32 -4 -7 -8 -7 -9 -2 -1 6 -4 -3
-8 -19 -3 -17 -13 -30 -24 -32 -10 -1 -16 3 -14 9 3 7 10 11 16 9 7 -1 9 3 6
9 -5 7 -20 -1 -42 -22 -34 -34 -31 -49 5 -30 13 7 23 7 31 -2 10 -9 12 -9 9 1
-2 10 41 13 212 12 123 0 219 -5 224 -10 6 -6 60 -9 121 -8 l110 2 -93 3 c-86
3 -93 5 -80 20 9 12 9 15 1 9 -11 -6 -17 3 -15 24 0 3 -14 6 -31 7 -29 1 -29
1 -7 -6 16 -4 26 -15 28 -31 2 -14 0 -21 -5 -17 -4 5 -8 14 -8 20 0 9 -60 13
-218 15 -168 2 -218 5 -214 15 2 6 14 11 27 9 14 -2 20 0 15 7 -3 6 -12 8 -18
5 -7 -4 -7 -1 1 7 11 12 15 11 26 -3 7 -10 16 -15 19 -11 4 3 -1 12 -11 20
-15 13 -15 13 8 8 19 -5 22 -4 10 4 -13 9 -13 11 1 11 9 0 19 -3 23 -7 3 -4
14 -8 22 -9 9 -1 13 1 9 4 -4 4 -11 8 -16 8 -22 3 -23 5 -9 14 26 17 -3 10
-50 -11z m262 -86 c-62 -2 -161 -2 -220 0 -59 1 -8 3 113 3 121 0 169 -2 107
-3z m-372 -7 c0 -2 -7 -7 -16 -10 -8 -3 -12 -2 -9 4 6 10 25 14 25 6z"/>
<path d="M5080 1201 c0 -6 -6 -8 -14 -5 -8 3 -27 -1 -42 -9 l-28 -14 27 0 c15
0 24 3 21 8 -3 5 0 9 5 9 6 0 11 -7 11 -16 0 -11 -6 -15 -20 -11 -11 3 -18 1
-14 -4 3 -5 -5 -5 -19 0 -17 7 -30 6 -41 -2 -13 -10 -2 -12 56 -12 52 1 72 4
71 13 -2 7 -4 18 -5 24 -2 9 7 12 27 9 36 -4 31 3 -7 13 -16 4 -28 2 -28 -3z
m-9 -44 c-10 -9 -11 -8 -5 6 3 10 9 15 12 12 3 -3 0 -11 -7 -18z"/>
<path d="M4 1187 c3 -10 6 -23 6 -28 0 -5 7 -9 16 -9 13 0 14 -3 5 -14 -8 -9
-8 -16 -2 -20 6 -4 8 -13 4 -21 -6 -17 12 -21 22 -5 4 6 11 8 16 5 5 -4 9 -2
9 3 0 6 -11 13 -25 16 -24 6 -27 26 -4 26 6 0 7 -4 4 -10 -3 -5 1 -10 11 -10
13 0 14 3 4 15 -10 12 -10 15 0 15 7 0 2 9 -11 20 -13 10 -19 19 -14 20 6 0
16 -5 23 -12 9 -9 12 -9 12 3 0 10 -10 15 -30 15 -16 0 -30 -4 -30 -10 0 -6
-5 -4 -11 4 -9 12 -10 12 -5 -3z m46 -22 c9 -10 9 -15 1 -15 -6 0 -11 5 -11
11 0 5 -4 7 -10 4 -5 -3 -10 -1 -10 4 0 16 16 13 30 -4z"/>
<path d="M244 1180 c0 -10 4 -16 8 -14 4 3 8 -1 8 -8 0 -8 9 -14 20 -14 11 0
20 6 20 12 0 7 6 14 13 17 9 4 9 7 0 16 -7 6 -11 8 -8 5 3 -4 0 -13 -7 -21 -9
-11 -15 -10 -32 6 -21 20 -22 20 -22 1z"/>
<path d="M544 1186 c-3 -8 -13 -12 -22 -9 -13 4 -14 3 -4 -5 11 -7 10 -12 -3
-26 -9 -9 -13 -16 -9 -16 3 0 2 -6 -3 -12 -17 -23 -24 -50 -10 -41 6 4 18 8
26 10 8 1 17 7 21 13 6 9 9 9 12 -1 3 -8 5 12 4 43 -1 61 -3 67 -12 44z m3
-38 c-2 -28 -32 -64 -41 -49 -4 5 2 14 11 20 10 6 14 11 10 11 -8 0 10 40 18
40 2 0 3 -10 2 -22z"/>
<path d="M965 1179 c-8 -23 -2 -32 21 -35 9 -1 13 0 10 3 -3 3 -1 14 4 24 7
12 6 20 -2 25 -6 4 -9 3 -5 -2 3 -5 -2 -18 -10 -29 -15 -19 -15 -19 -9 8 7 32
0 37 -9 6z"/>
<path d="M1204 1188 c-3 -5 -3 -12 0 -15 3 -4 6 -1 6 6 0 7 5 9 12 5 19 -12
48 -12 55 -1 3 6 1 7 -5 3 -7 -4 -12 -4 -12 1 0 12 -49 13 -56 1z"/>
<path d="M2838 1188 c5 -5 16 -8 23 -6 8 3 3 7 -10 11 -17 4 -21 3 -13 -5z"/>
<path d="M3430 1189 c0 -5 5 -7 10 -4 6 3 10 8 10 11 0 2 -4 4 -10 4 -5 0 -10
-5 -10 -11z"/>
<path d="M4725 1180 c-3 -11 -4 -24 0 -29 3 -6 -3 -14 -12 -20 -14 -8 -15 -10
-3 -11 13 0 13 -1 0 -10 -12 -8 -10 -9 8 -7 13 2 28 10 34 18 7 10 8 6 4 -13
-4 -16 -2 -28 4 -28 13 0 13 47 1 55 -5 3 -12 1 -16 -5 -3 -5 -11 -10 -17 -10
-7 0 -6 6 2 15 7 8 18 15 24 15 6 0 12 12 13 28 l1 27 -15 -28 c-8 -16 -17
-27 -20 -24 -2 3 0 15 7 26 6 13 7 21 1 21 -5 0 -12 -9 -16 -20z"/>
<path d="M726 1174 c-9 -22 -8 -24 10 -24 8 0 12 -5 9 -10 -4 -6 -10 -8 -15
-5 -4 3 -7 -3 -5 -12 2 -13 10 -17 30 -15 25 3 27 1 16 -12 -8 -9 -10 -16 -5
-16 5 0 2 -5 -6 -11 -13 -9 -13 -10 0 -6 8 2 15 8 15 13 0 5 3 14 6 19 7 13
-3 56 -13 56 -19 -2 -20 0 -9 13 8 10 9 16 1 21 -6 4 -9 1 -8 -6 2 -6 -3 -14
-10 -16 -8 -3 -10 1 -6 11 3 9 4 16 1 16 -3 0 -8 -7 -11 -16z m38 -43 c3 -5
-1 -11 -9 -14 -9 -4 -12 -1 -8 9 6 16 10 17 17 5z"/>
<path d="M1020 1179 c0 -5 5 -7 10 -4 6 3 10 8 10 11 0 2 -4 4 -10 4 -5 0 -10
-5 -10 -11z"/>
<path d="M1384 1177 c-16 -9 -19 -15 -10 -22 16 -14 39 -18 32 -6 -4 5 -2 12
4 16 12 7 14 25 3 25 -5 -1 -18 -6 -29 -13z m21 -7 c-3 -5 -12 -10 -18 -10 -7
0 -6 4 3 10 19 12 23 12 15 0z"/>
<path d="M1577 1183 c-4 -3 -7 -11 -7 -17 0 -6 5 -5 12 2 6 6 9 14 7 17 -3 3
-9 2 -12 -2z"/>
<path d="M1600 1169 c-7 -11 -9 -23 -7 -26 3 -2 8 5 12 16 3 11 16 22 28 24
l22 4 -22 2 c-13 0 -27 -7 -33 -20z"/>
<path d="M3450 1175 c-33 -19 -10 -19 26 0 16 8 22 15 14 15 -8 -1 -26 -7 -40
-15z"/>
<path d="M4535 1181 c3 -5 -2 -17 -11 -25 -8 -9 -12 -16 -7 -16 12 0 42 37 36
44 -10 10 -25 7 -18 -3z"/>
<path d="M5325 1180 c-3 -5 -3 -10 2 -10 4 -1 -3 -7 -17 -15 -24 -13 -23 -13
23 -11 26 1 47 -1 47 -6 0 -4 4 -8 9 -8 15 0 6 32 -12 42 -13 7 -15 5 -11 -7
8 -19 -10 -20 -25 -1 -9 11 -9 15 1 19 9 4 9 6 1 6 -6 1 -15 -3 -18 -9z"/>
<path d="M1727 1165 c-4 -9 -3 -13 3 -10 6 3 10 1 10 -4 0 -10 -14 -15 -32
-12 -4 0 -5 -6 -2 -14 4 -8 14 -15 23 -15 12 0 13 2 3 9 -11 6 -10 10 3 15 14
5 16 2 12 -16 -4 -14 0 -26 11 -34 15 -12 15 -13 -5 -9 -13 2 -23 0 -23 -6 0
-5 35 -9 78 -9 67 1 74 2 54 13 -12 7 -20 16 -16 20 12 11 -17 37 -39 34 -17
-1 -21 3 -20 18 1 11 0 14 -3 8 -3 -7 -10 -13 -15 -13 -6 0 -8 4 -5 8 2 4 1
14 -5 22 -7 13 -9 13 -9 0 0 -12 -2 -12 -9 -2 -7 11 -9 10 -14 -3z m57 -51 c5
-12 10 -14 20 -5 7 6 16 8 19 4 11 -10 8 -43 -4 -43 -5 0 -7 5 -4 10 3 6 -1
10 -10 10 -10 0 -13 -5 -9 -12 4 -6 -4 -3 -18 8 -15 10 -22 21 -17 22 5 2 7 8
3 13 -3 5 -1 9 4 9 6 0 13 -7 16 -16z"/>
<path d="M2498 1170 c-2 -6 -14 -12 -27 -15 -30 -6 -52 -25 -29 -25 9 0 19 6
21 13 4 9 6 9 6 0 1 -15 -34 -35 -44 -25 -5 4 -5 2 -1 -5 3 -6 -2 -17 -11 -23
-16 -11 -16 -11 2 -6 20 6 20 6 1 -9 -19 -14 -19 -15 8 -15 15 0 25 4 21 10
-3 6 -1 10 4 10 6 0 11 -6 11 -12 0 -9 3 -9 9 1 6 9 6 22 1 32 -13 24 26 65
46 48 18 -15 18 -2 0 17 -8 8 -16 10 -18 4z m-35 -74 c4 -10 0 -12 -14 -9 -10
3 -16 9 -13 14 8 13 21 11 27 -5z"/>
<path d="M1214 1162 c-5 -4 -10 -15 -10 -24 -1 -14 2 -16 17 -7 11 5 19 14 19
19 0 5 8 7 18 3 9 -3 14 -3 11 1 -9 10 -44 15 -55 8z"/>
<path d="M2853 1156 c0 -9 3 -13 7 -11 12 7 33 -13 25 -25 -5 -9 -36 -11 -108
-9 -79 3 -101 1 -105 -10 -3 -9 0 -11 8 -6 19 12 211 8 223 -4 19 -19 31 -12
13 8 -10 11 -16 29 -14 42 2 17 -3 23 -23 26 -17 2 -26 -1 -26 -11z"/>
<path d="M317 1139 c4 -13 8 -18 11 -10 2 7 -1 18 -6 23 -8 8 -9 4 -5 -13z"/>
<path d="M1010 1148 c0 -4 4 -8 9 -8 6 0 12 4 15 8 3 5 -1 9 -9 9 -8 0 -15 -4
-15 -9z"/>
<path d="M1616 1151 c-3 -4 8 -8 23 -7 16 1 27 4 24 9 -6 10 -41 9 -47 -2z"/>
<path d="M2665 1152 l20 -9 -20 -5 c-12 -3 -7 -5 13 -5 31 0 56 13 29 15 -7 0
-23 3 -37 6 -20 5 -21 5 -5 -2z"/>
<path d="M2922 1134 c-2 -26 12 -39 34 -30 11 4 12 10 5 25 -16 29 -37 32 -39
5z m34 -21 c-7 -7 -26 7 -26 19 0 6 6 6 15 -2 9 -7 13 -15 11 -17z"/>
<path d="M3376 1152 c-2 -4 4 -8 14 -8 10 0 16 4 14 8 -3 4 -9 8 -14 8 -5 0
-11 -4 -14 -8z"/>
<path d="M1292 1105 l-43 -41 54 0 c54 0 54 0 52 31 -1 16 3 36 8 43 6 8 6 12
-2 12 -6 0 -11 -6 -11 -12 0 -9 -3 -10 -8 -2 -4 7 -23 -4 -50 -31z m54 -7 c-1
-18 -8 -23 -39 -24 -35 -2 -37 -1 -20 11 21 17 37 19 28 5 -3 -6 1 -7 10 -4
12 5 13 9 4 20 -9 11 -8 14 3 14 9 0 15 -9 14 -22z"/>
<path d="M5179 1137 c7 -7 14 -8 21 -1 6 6 2 10 -12 11 -16 2 -18 -1 -9 -10z"/>
<path d="M5408 1128 c4 -16 2 -19 -8 -13 -8 5 -11 4 -7 -2 4 -6 0 -13 -8 -16
-9 -4 -12 -1 -9 7 3 8 1 17 -5 21 -7 4 -10 -2 -8 -16 4 -22 37 -37 37 -16 0 8
4 7 12 -1 7 -7 25 -12 42 -12 l30 0 -34 35 c-39 40 -50 44 -42 13z m27 -18
c-3 -4 1 -11 7 -13 8 -4 7 -6 -4 -6 -9 -1 -20 4 -23 9 -3 6 -1 10 5 10 6 0 8
5 4 12 -4 7 -3 8 5 4 6 -4 9 -11 6 -16z"/>
<path d="M1221 1120 c-13 -11 -19 -20 -14 -20 5 0 15 6 22 13 11 10 13 9 8 -5
-4 -10 -2 -18 3 -18 6 0 10 4 10 9 0 5 3 16 6 25 8 21 -6 20 -35 -4z"/>
<path d="M4921 1126 c-17 -20 0 -23 111 -16 71 3 99 2 102 -7 3 -6 19 -11 36
-11 21 1 27 4 18 9 -10 7 -10 9 1 9 8 0 11 3 8 6 -4 4 -13 1 -22 -6 -9 -7 -19
-10 -22 -6 -4 4 -2 11 6 15 10 6 9 10 -4 15 -10 3 -23 1 -31 -5 -8 -6 -45 -9
-93 -7 -45 2 -81 0 -81 -4 0 -5 -4 -8 -10 -8 -5 0 -7 7 -4 15 8 19 0 19 -15 1z"/>
<path d="M1697 1097 c11 -25 19 -33 25 -25 10 17 10 29 -1 26 -5 -2 -17 6 -26
17 -13 17 -13 14 2 -18z"/>
<path d="M4280 1123 c100 -6 408 -8 392 -1 -9 4 -111 6 -227 5 -115 0 -190 -2
-165 -4z"/>
<path d="M2220 1110 c0 -6 5 -8 12 -4 8 5 9 2 5 -9 -3 -9 -1 -19 4 -23 7 -4 9
3 7 17 -3 23 -28 40 -28 19z"/>
<path d="M2523 1113 c26 -2 68 -2 95 0 26 2 4 3 -48 3 -52 0 -74 -1 -47 -3z"/>
<path d="M940 1095 c0 -8 2 -15 4 -15 2 0 6 7 10 15 3 8 1 15 -4 15 -6 0 -10
-7 -10 -15z"/>
<path d="M2382 1097 c-7 -8 -7 -18 -2 -27 8 -12 10 -11 10 7 0 12 6 24 13 26
7 4 8 6 1 6 -6 1 -16 -5 -22 -12z"/>
<path d="M2971 1092 c-7 -14 -6 -19 4 -19 7 0 13 9 12 19 -1 10 -2 18 -4 18
-1 0 -7 -8 -12 -18z"/>
<path d="M2640 1093 c0 -4 5 -15 10 -23 8 -13 10 -13 10 2 0 9 -4 20 -10 23
-5 3 -10 3 -10 -2z"/>
<path d="M4885 1090 c-2 -3 5 -7 16 -7 10 -1 19 2 19 6 0 9 -29 10 -35 1z"/>
<path d="M329 1081 c8 -5 10 -14 6 -22 -6 -11 -5 -11 5 -2 14 12 6 33 -13 33
-8 0 -7 -3 2 -9z"/>
<path d="M726 1074 c-9 -24 -2 -26 12 -4 7 11 8 20 3 20 -5 0 -12 -7 -15 -16z"/>
<path d="M1209 1088 c-8 -27 -5 -35 12 -31 10 3 19 9 19 14 0 5 -7 5 -17 2
-11 -4 -14 -3 -9 5 4 7 5 12 2 12 -3 0 -6 -1 -7 -2z"/>
<path d="M1680 1081 c0 -6 4 -13 10 -16 6 -3 7 1 4 9 -7 18 -14 21 -14 7z"/>
<path d="M2684 1078 c-6 -9 12 -19 19 -11 4 3 44 5 91 4 46 -1 86 1 89 6 3 4
-40 8 -95 8 -55 0 -102 -3 -104 -7z"/>
<path d="M4650 1080 c8 -5 20 -10 25 -10 6 0 3 5 -5 10 -8 5 -19 10 -25 10 -5
0 -3 -5 5 -10z"/>
<path d="M50 1065 c-11 -13 2 -15 126 -13 l139 2 -120 3 c-66 2 -122 8 -125
14 -4 6 -12 4 -20 -6z"/>
<path d="M520 1070 c-23 -7 -23 -8 -3 -9 12 -1 25 4 28 9 3 6 5 10 3 9 -2 -1
-14 -5 -28 -9z"/>
<path d="M3378 1073 c56 -2 148 -2 205 0 56 1 10 3 -103 3 -113 0 -159 -2
-102 -3z"/>
<path d="M4694 1029 c-18 -7 -18 -8 1 -9 11 -2 27 -1 35 0 12 1 13 -1 2 -12
-10 -10 -63 -12 -256 -9 -170 2 -246 0 -250 -8 -4 -6 0 -11 9 -11 11 0 15 -5
11 -16 -3 -8 -2 -12 4 -9 14 9 12 -8 -2 -24 -11 -11 -10 -12 1 -6 10 6 12 2 6
-16 l-7 -24 28 26 c29 26 62 44 77 41 12 -3 8 16 -5 21 -7 3 4 4 24 3 30 -1
38 -5 38 -20 0 -15 -3 -16 -14 -7 -8 7 -16 8 -19 4 -3 -5 12 -16 34 -25 22 -9
37 -12 34 -7 -4 5 -2 9 4 9 6 0 15 8 20 18 7 14 6 19 -4 19 -7 0 -11 -6 -8
-13 3 -8 -3 -12 -16 -11 -21 1 -31 37 -10 37 5 0 7 -6 3 -12 -6 -10 -4 -10 7
0 9 8 52 12 140 12 129 0 174 10 174 39 0 16 -32 21 -61 10z m-364 -66 c0 -13
-3 -13 -15 -3 -13 11 -18 11 -28 0 -10 -10 -8 -12 6 -7 10 4 16 3 13 -2 -3 -5
-14 -11 -23 -13 -13 -4 -18 1 -19 17 -1 18 4 22 32 23 25 1 34 -3 34 -15z"/>
<path d="M4872 1035 c2 -3 139 -5 304 -6 278 0 301 -2 324 -20 30 -22 14 -26
-18 -3 -23 16 -32 4 -9 -13 14 -11 47 -11 47 0 0 4 0 12 0 17 0 6 -8 10 -17
10 -15 0 -16 2 -3 10 10 6 -96 10 -309 10 -178 0 -322 -2 -319 -5z"/>
<path d="M3160 1015 c0 -17 -2 -18 -11 -5 -9 13 -10 13 -6 0 2 -8 -3 -20 -10
-25 -8 -6 -15 -18 -16 -27 -3 -20 -26 -48 -39 -48 -5 0 -6 6 -1 13 4 6 8 21 8
33 1 17 -2 19 -21 10 -13 -6 -19 -16 -16 -25 4 -10 7 -11 10 -3 2 7 8 12 13
12 6 0 5 -8 -1 -20 -6 -12 -16 -18 -23 -14 -7 4 -8 3 -4 -2 10 -11 107 -12
107 -1 0 4 -9 7 -21 7 -11 0 -17 5 -14 10 4 6 10 8 15 5 12 -7 32 21 28 42 -2
14 3 18 22 16 14 -1 39 3 55 8 32 11 424 12 451 2 12 -4 13 -7 3 -14 -8 -5 1
-7 23 -6 20 1 34 5 31 10 -2 4 1 7 7 7 6 0 8 5 5 10 -3 6 -11 10 -16 10 -6 0
-7 -4 -4 -10 8 -13 -26 -13 -45 1 -13 9 -12 10 2 5 10 -3 20 -1 23 4 8 13
-505 13 -525 0 -9 -6 -17 -5 -22 3 -5 8 -8 5 -8 -8z m70 -5 c-8 -5 -22 -9 -30
-9 -10 0 -8 3 5 9 27 12 43 12 25 0z m-85 -49 c-3 -6 -11 -11 -17 -11 -6 0 -6
6 2 15 14 17 26 13 15 -4z"/>
<path d="M3986 1015 c-3 -8 -1 -15 4 -15 6 0 10 7 10 15 0 8 -2 15 -4 15 -2 0
-6 -7 -10 -15z"/>
<path d="M4184 1023 c2 -3 109 -6 238 -7 128 -1 244 -5 258 -9 14 -4 7 0 -15
8 -33 13 -81 16 -263 14 -122 -1 -221 -4 -218 -6z"/>
<path d="M4835 1020 c4 -6 11 -8 16 -5 14 9 11 15 -7 15 -8 0 -12 -5 -9 -10z"/>
<path d="M795 993 c1 -14 11 -32 21 -40 17 -12 13 -17 -11 -14 -5 1 1 -8 14
-19 13 -11 18 -20 12 -20 -6 0 -11 -7 -11 -15 0 -8 7 -15 16 -15 8 0 12 -5 9
-11 -4 -6 -13 -8 -21 -5 -18 7 -25 -6 -13 -24 6 -11 9 -12 9 -2 0 7 4 11 9 8
5 -4 12 0 14 6 3 7 6 4 7 -7 1 -18 1 -19 11 -2 11 19 30 23 27 6 -2 -6 4 -14
12 -16 13 -4 13 -3 1 6 -12 8 -9 11 15 16 45 10 51 13 27 14 -31 1 -54 12 -47
22 3 5 14 4 25 -2 12 -6 23 -8 27 -5 3 3 -1 6 -8 6 -9 0 -8 4 4 13 16 12 16
14 2 14 -9 0 -16 -5 -16 -11 -1 -6 -10 0 -22 14 -20 24 -20 24 -14 3 5 -15 3
-23 -4 -23 -7 0 -9 -7 -6 -16 4 -11 1 -14 -12 -12 -9 2 -16 9 -15 16 2 7 -4 9
-15 5 -14 -5 -15 -3 -4 8 17 18 15 29 -4 29 -13 0 -14 3 -4 15 10 12 9 16 -4
21 -9 3 -16 10 -16 16 0 5 5 6 11 2 6 -3 3 5 -6 20 -22 33 -24 33 -20 -1z"/>
<path d="M934 1006 c5 -13 2 -17 -8 -13 -9 4 -13 0 -11 -11 1 -9 9 -16 16 -14
25 6 29 18 13 38 -15 18 -15 18 -10 0z"/>
<path d="M1222 1015 c8 -8 507 -9 515 -1 3 3 -112 6 -257 6 -145 0 -261 -2
-258 -5z"/>
<path d="M1805 1012 c-22 -1 -49 -7 -60 -12 -11 -5 -29 -11 -40 -13 -11 -2 16
-3 60 -4 62 0 70 2 35 7 l-45 6 47 4 c37 4 48 2 51 -10 2 -10 5 -9 9 6 3 12 1
20 -6 20 -6 -1 -29 -2 -51 -4z"/>
<path d="M1889 1018 c-7 -23 -4 -36 7 -34 22 3 29 16 8 16 -16 0 -17 2 -4 10
10 6 11 10 3 10 -7 0 -13 -1 -14 -2z"/>
<path d="M1950 957 c0 -41 -3 -56 -12 -51 -7 5 -8 3 -3 -6 11 -19 15 -61 5
-55 -5 3 -7 12 -4 19 3 8 1 17 -4 20 -12 7 -10 -67 3 -76 7 -5 7 -8 0 -8 -5 0
-11 -12 -12 -27 0 -15 2 -21 7 -14 5 9 9 6 13 -8 3 -12 1 -19 -3 -16 -5 3 -12
0 -16 -6 -4 -7 -3 -9 4 -5 6 3 13 2 17 -4 3 -6 -1 -13 -9 -16 -9 -3 -16 -10
-16 -16 0 -5 4 -7 9 -4 17 11 21 -27 21 -200 0 -126 3 -174 12 -174 6 0 8 3 5
7 -4 3 1 12 10 18 20 15 27 86 8 79 -6 -3 -12 -11 -12 -19 0 -8 4 -12 9 -9 4
3 8 -2 8 -10 0 -8 -6 -13 -12 -11 -10 4 -13 49 -12 183 1 97 -3 187 -7 200 -6
16 -5 22 6 22 9 0 14 -8 12 -21 -1 -12 4 -24 11 -26 15 -6 16 21 0 46 -7 11
-19 16 -30 13 -10 -2 -18 0 -18 6 0 16 39 21 48 6 4 -7 7 16 7 51 1 36 -3 65
-8 65 -5 0 -7 -6 -4 -14 3 -8 1 -17 -6 -20 -9 -3 -9 -5 1 -5 6 -1 12 -6 12
-12 0 -5 -4 -7 -10 -4 -5 3 -10 1 -10 -4 0 -6 5 -11 11 -11 6 0 4 -7 -5 -15
-17 -17 -36 -20 -36 -5 0 6 5 9 12 8 7 -2 11 12 11 37 -1 43 13 69 30 58 6 -3
7 -1 3 5 -4 7 -13 12 -21 12 -13 0 -13 28 0 50 3 5 56 9 125 7 65 -1 111 1
101 4 -9 4 -70 9 -134 11 l-117 3 0 -58z m25 -607 c3 -5 1 -10 -4 -10 -6 0
-11 5 -11 10 0 6 2 10 4 10 3 0 8 -4 11 -10z"/>
<path d="M2200 1016 c0 -7 40 -14 44 -7 3 4 -6 8 -20 9 -13 1 -24 0 -24 -2z"/>
<path d="M2320 1009 c0 -4 18 -6 40 -5 31 3 38 0 30 -9 -8 -10 11 -13 87 -15
54 -2 116 -2 138 -2 21 0 34 -2 28 -6 -8 -5 -9 -13 -3 -22 8 -13 10 -12 10 3
0 10 4 15 10 12 6 -3 7 1 4 9 -5 13 -29 16 -138 18 l-131 2 155 6 155 6 -150
3 c-82 2 -169 4 -192 6 -24 1 -43 -1 -43 -6z"/>
<path d="M3043 1005 c0 -7 7 -11 16 -8 11 3 10 0 -3 -11 -11 -9 -15 -16 -9
-16 16 0 33 24 25 35 -11 15 -29 15 -29 0z"/>
<path d="M5167 1000 c4 -16 2 -19 -13 -13 -11 3 -22 11 -26 17 -5 7 -8 7 -8
-2 0 -17 -267 -15 -289 2 -12 9 -12 8 0 -11 8 -13 17 -23 22 -23 4 0 5 5 2 10
-3 6 -1 10 4 10 17 0 13 -12 -16 -42 -18 -19 -22 -28 -12 -28 12 0 12 -2 -1
-11 -13 -9 -13 -10 0 -6 8 2 14 9 13 15 -1 5 4 16 13 23 13 10 14 9 10 -14 -3
-15 -1 -27 4 -27 5 0 8 12 8 28 -1 55 -6 53 118 51 63 0 113 -4 109 -7 -3 -4
-18 -6 -33 -7 -21 0 -27 -5 -28 -23 -1 -12 1 -20 4 -17 3 3 17 -2 31 -12 22
-14 24 -14 13 -1 -11 13 -8 17 15 23 16 4 22 10 16 12 -7 3 -13 9 -13 14 0 6
8 6 19 -1 26 -13 81 -13 81 1 0 6 -9 8 -21 4 -14 -5 -19 -3 -15 3 4 6 59 11
133 11 70 1 129 4 132 6 2 3 -49 5 -115 5 -90 0 -125 4 -141 15 -20 14 -21 13
-16 -5z m-14 -23 c4 3 7 1 7 -5 0 -14 -2 -14 -24 -6 -9 3 -16 11 -16 16 0 7 5
6 13 -1 8 -6 17 -8 20 -4z m-79 -29 c4 6 14 8 23 5 13 -5 12 -8 -6 -15 -25 -9
-41 -3 -41 15 0 8 3 8 9 -2 6 -9 11 -10 15 -3z"/>
<path d="M337 994 c4 -12 0 -12 -22 -4 -14 5 -78 10 -141 10 -115 0 -115 0
-109 -22 4 -13 14 -28 22 -34 11 -10 11 -13 1 -17 -8 -3 -9 -6 -1 -6 6 -1 9
-10 6 -22 -5 -19 -3 -21 19 -16 22 6 26 2 35 -26 l10 -32 -1 42 c0 23 -4 36
-8 30 -6 -9 -8 -8 -8 3 0 11 -3 11 -12 2 -14 -14 -28 -16 -28 -3 0 5 14 14 31
20 23 8 30 15 25 27 -3 8 -6 20 -6 25 0 5 -5 9 -10 9 -7 0 -7 -6 0 -19 12 -24
13 -31 2 -31 -5 0 -14 12 -21 26 -7 16 -17 24 -26 20 -8 -3 -17 -1 -20 5 -4 6
25 9 77 9 104 -2 179 -10 174 -19 -3 -4 0 -13 6 -21 8 -12 9 -12 4 2 -3 10 -1
20 4 23 6 4 10 -2 10 -12 0 -11 6 -25 13 -32 10 -11 9 -13 -5 -8 -20 7 -21 2
-8 -28 l9 -20 0 20 c1 15 3 17 10 7 7 -11 9 -11 14 2 3 8 2 18 -3 21 -5 3 -7
13 -4 23 5 15 4 15 -5 2 -10 -12 -11 -8 -9 19 2 25 -1 34 -14 36 -11 2 -15 -2
-11 -11z m-223 -40 c9 -23 7 -34 -4 -34 -5 0 -7 7 -4 15 4 10 0 15 -11 15 -9
0 -13 5 -10 10 9 15 22 12 29 -6z"/>
<path d="M457 990 c-8 -11 -8 -12 0 -5 7 6 62 8 142 5 71 -3 127 -2 124 3 -6
10 5 9 27 -3 13 -7 19 -6 23 3 7 20 -301 17 -316 -3z"/>
<path d="M1215 990 c11 -5 27 -9 35 -9 9 0 8 4 -5 9 -11 5 -27 9 -35 9 -9 0
-8 -4 5 -9z"/>
<path d="M1270 988 c0 -5 40 -8 88 -8 55 0 92 -4 100 -12 16 -16 15 -28 -2
-28 -9 0 -14 -9 -13 -20 1 -19 3 -18 43 5 24 14 58 25 76 26 l33 1 -28 10
c-21 8 -33 6 -52 -6 -24 -16 -40 -10 -27 10 11 16 165 13 177 -4 8 -10 11 -9
12 7 2 20 -5 20 -203 23 -112 2 -204 0 -204 -4z m210 -18 c0 -5 -2 -10 -4 -10
-3 0 -8 5 -11 10 -3 6 -1 10 4 10 6 0 11 -4 11 -10z m0 -40 c-8 -5 -19 -10
-25 -10 -5 0 -3 5 5 10 8 5 20 10 25 10 6 0 3 -5 -5 -10z"/>
<path d="M3240 990 c-18 -12 -2 -12 25 0 13 6 15 9 5 9 -8 0 -22 -4 -30 -9z"/>
<path d="M4080 990 l-85 -7 103 0 c56 0 102 4 102 9 0 4 -8 7 -17 6 -10 -1
-56 -5 -103 -8z"/>
<path d="M1980 967 c0 -19 1 -19 13 -4 9 12 32 17 92 20 l80 3 -92 1 c-87 0
-93 -1 -93 -20z"/>
<path d="M2235 980 c3 -5 8 -10 11 -10 2 0 4 5 4 10 0 6 -5 10 -11 10 -5 0 -7
-4 -4 -10z"/>
<path d="M2304 975 c3 -23 12 -26 13 -5 1 11 -2 20 -7 20 -4 0 -7 -7 -6 -15z"/>
<path d="M2704 975 c6 -17 -9 -21 -17 -5 -3 6 -4 5 -3 -2 2 -7 9 -13 17 -14
24 -1 88 -37 83 -46 -3 -4 2 -11 10 -14 9 -3 16 -18 16 -33 0 -20 3 -22 9 -11
6 8 7 18 5 22 -3 4 0 8 5 8 6 0 11 5 11 11 0 5 -4 8 -9 5 -18 -11 -38 5 -36
29 3 20 0 23 -23 19 -26 -5 -26 -5 -7 10 11 8 24 12 30 9 5 -4 6 -2 2 3 -13
14 -41 11 -55 -6 -10 -13 -11 -12 -6 5 5 16 4 17 -5 5 -10 -13 -15 -8 -12 13
0 4 -4 7 -10 7 -6 0 -9 -7 -5 -15z"/>
<path d="M3178 965 c2 -15 0 -25 -7 -25 -6 0 -11 -5 -11 -11 0 -8 5 -8 15 1
16 14 20 46 6 54 -4 3 -6 -6 -3 -19z"/>
<path d="M3798 983 c23 -2 61 -2 85 0 23 2 4 4 -43 4 -47 0 -66 -2 -42 -4z"/>
<path d="M3974 981 c4 -5 2 -11 -2 -13 -5 -1 -1 -11 8 -21 17 -17 17 -17 15 5
-4 37 -4 38 -16 38 -5 0 -8 -4 -5 -9z"/>
<path d="M4736 981 c-3 -5 1 -14 9 -21 11 -9 14 -8 12 9 -1 22 -12 28 -21 12z"/>
<path d="M4819 977 c12 -15 12 -17 -4 -10 -14 5 -17 3 -12 -10 3 -8 1 -18 -6
-21 -7 -2 -7 -5 -2 -5 6 0 19 6 30 14 19 15 19 16 0 33 -18 16 -18 16 -6 -1z"/>
<path d="M3428 973 c7 -3 16 -2 19 1 4 3 -2 6 -13 5 -11 0 -14 -3 -6 -6z"/>
<path d="M3465 970 c-8 -14 3 -30 21 -30 8 0 14 5 14 10 0 6 -7 10 -16 10 -8
0 -12 5 -9 10 3 6 4 10 1 10 -3 0 -8 -4 -11 -10z"/>
<path d="M3524 966 c3 -21 7 -24 45 -31 30 -5 32 -4 17 10 -20 21 -20 29 0 21
8 -3 12 -2 9 3 -3 6 -14 9 -25 8 -14 -1 -16 -4 -8 -14 15 -18 -2 -16 -23 3
-16 14 -17 14 -15 0z"/>
<path d="M5526 963 c-6 -14 -5 -15 5 -6 7 7 10 15 7 18 -3 3 -9 -2 -12 -12z"/>
<path d="M1615 959 c-4 -5 1 -19 10 -29 13 -14 13 -19 3 -23 -9 -4 -9 -6 -1
-6 19 -1 27 20 12 30 -13 8 -5 13 14 10 5 -1 6 3 2 9 -5 8 -12 7 -23 -2 -13
-11 -15 -10 -9 5 7 19 2 23 -8 6z"/>
<path d="M1920 956 c0 -8 4 -17 9 -20 5 -4 7 3 4 14 -6 23 -13 26 -13 6z"/>
<path d="M2567 963 c-4 -6 0 -13 8 -17 8 -3 17 -1 20 5 4 5 10 7 15 4 5 -3 2
-14 -7 -25 -15 -17 -18 -17 -28 -3 -11 14 -12 14 -12 0 0 -26 29 -30 51 -7 19
19 20 21 3 37 -15 15 -19 16 -26 4 -7 -11 -9 -11 -13 0 -3 9 -6 10 -11 2z"/>
<path d="M5220 952 c0 -10 4 -11 13 -5 6 6 19 13 27 16 8 3 3 5 -12 4 -17 -1
-28 -7 -28 -15z"/>
<path d="M449 947 c7 -7 14 -8 21 -1 6 6 2 10 -12 11 -16 2 -18 -1 -9 -10z"/>
<path d="M924 946 c-13 -10 -16 -18 -8 -25 7 -8 16 -7 30 4 18 15 18 16 -6 10
l-25 -6 25 15 c14 9 20 15 14 16 -5 0 -19 -6 -30 -14z"/>
<path d="M3396 944 c-5 -14 -4 -15 9 -4 17 14 19 20 6 20 -5 0 -12 -7 -15 -16z"/>
<path d="M4723 941 c1 -11 6 -17 14 -14 10 4 11 9 2 19 -15 19 -18 18 -16 -5z"/>
<path d="M2286 943 c-11 -11 -6 -23 9 -23 8 0 15 4 15 9 0 13 -16 22 -24 14z"/>
<path d="M3428 936 c-10 -7 -18 -17 -18 -21 0 -5 8 -1 18 8 10 10 22 14 27 10
4 -5 5 -2 1 5 -9 14 -7 15 -28 -2z"/>
<path d="M3955 939 c-4 -6 -5 -12 -2 -15 2 -3 7 2 10 11 7 17 1 20 -8 4z"/>
<path d="M5250 940 c-10 -6 -11 -10 -2 -10 6 0 11 -5 10 -11 -2 -6 4 -14 12
-16 13 -4 13 -3 0 6 -13 10 -13 11 0 11 12 0 13 2 1 9 -11 7 -11 9 0 14 8 3
10 6 4 6 -5 0 -17 -4 -25 -9z"/>
<path d="M5539 945 c-1 -3 -2 -8 -3 -12 -1 -5 -4 -13 -8 -18 -4 -6 2 -11 13
-11 21 0 25 11 9 21 -6 4 -8 11 -5 16 4 5 4 9 1 9 -3 0 -7 -2 -7 -5z"/>
<path d="M432 914 c4 -20 34 -41 45 -31 10 11 -11 41 -31 45 -12 3 -17 -2 -14
-14z m38 -16 c0 -13 -23 -5 -28 10 -2 7 2 10 12 6 9 -3 16 -11 16 -16z"/>
<path d="M3182 914 c-7 -8 -8 -14 -3 -14 10 0 25 19 20 25 -2 1 -10 -3 -17
-11z"/>
<path d="M4732 908 c-15 -15 -15 -28 0 -28 6 0 8 3 5 7 -4 3 -2 12 4 20 14 16
7 17 -9 1z"/>
<path d="M4785 910 c-3 -6 1 -7 9 -4 18 7 21 14 7 14 -6 0 -13 -4 -16 -10z"/>
<path d="M325 900 c-3 -5 -1 -10 4 -10 6 0 11 5 11 10 0 6 -2 10 -4 10 -3 0
-8 -4 -11 -10z"/>
<path d="M802 890 c0 -14 2 -19 5 -12 2 6 2 18 0 25 -3 6 -5 1 -5 -13z"/>
<path d="M2301 888 c11 -21 -1 -24 -20 -5 -11 10 -13 10 -7 0 4 -7 2 -13 -5
-13 -7 0 -9 -10 -6 -26 2 -14 -1 -31 -9 -38 -8 -8 -11 -30 -9 -57 2 -24 4 -48
4 -52 1 -5 5 -6 10 -3 5 3 6 27 3 53 -2 27 -1 44 4 40 4 -4 9 -22 10 -40 0
-18 4 -48 8 -67 6 -31 5 -33 -7 -17 -13 16 -14 16 -14 -8 0 -14 4 -28 10 -32
6 -4 7 -1 2 7 -5 8 -3 11 4 9 7 -3 13 -9 13 -14 0 -6 4 -16 10 -22 13 -16 -4
-17 -20 -1 -7 7 -12 8 -12 4 0 -4 10 -17 23 -28 16 -14 17 -18 5 -14 -12 3
-15 1 -11 -9 3 -8 10 -12 16 -8 6 4 8 0 5 -9 -4 -8 -3 -20 1 -27 4 -6 7 13 7
44 0 30 -5 55 -9 55 -5 0 -4 7 3 15 10 12 10 15 0 15 -9 0 -11 11 -7 38 5 25
3 32 -3 22 -6 -9 -10 -10 -10 -3 0 6 -3 19 -6 28 -6 16 15 18 27 3 3 -4 5 8 5
27 0 41 -15 48 -17 8 -2 -28 -2 -28 -6 -3 -3 14 -10 31 -16 39 -9 10 -7 17 8
28 17 13 17 15 3 10 -10 -4 -18 -2 -18 2 0 11 29 23 39 17 4 -3 7 8 6 23 0 15
-5 28 -12 28 -8 0 -9 -6 -2 -19z"/>
<path d="M3373 898 c-13 -21 -11 -67 3 -72 16 -6 19 10 4 19 -14 9 -12 25 3
21 6 -1 9 -1 5 1 -5 3 -3 13 2 24 12 21 -4 27 -17 7z"/>
<path d="M3943 899 c3 -9 0 -22 -6 -28 -8 -8 -8 -11 1 -11 7 0 12 -5 12 -11 0
-5 -6 -7 -12 -3 -10 6 -10 5 -1 -8 7 -8 9 -19 5 -23 -4 -5 -1 -5 6 -1 7 4 9
12 6 18 -4 6 -1 9 7 6 8 -3 13 -14 11 -24 -2 -16 -1 -17 7 -4 9 12 11 13 11 1
0 -8 3 -11 6 -8 4 4 1 14 -7 23 -14 17 -17 52 -6 70 3 6 0 11 -8 11 -8 0 -15
-5 -15 -11 0 -6 -5 -4 -11 4 -9 13 -10 13 -6 -1z m24 -34 c0 -8 -4 -12 -9 -9
-4 3 -8 9 -8 15 0 5 4 9 8 9 5 0 9 -7 9 -15z"/>
<path d="M4457 896 c-3 -8 -3 -17 0 -20 4 -3 5 -35 4 -71 -2 -42 2 -65 9 -65
12 0 11 128 -2 136 -4 3 -5 11 -1 19 3 8 3 15 0 15 -3 0 -7 -6 -10 -14z"/>
<path d="M2855 878 c-11 -12 -14 -18 -7 -14 6 4 12 2 12 -3 0 -23 16 -10 18
14 2 30 2 30 -23 3z"/>
<path d="M3607 883 c3 -7 12 -13 20 -13 12 0 13 -3 4 -13 -6 -8 -10 -54 -10
-110 0 -53 -2 -101 -6 -107 -3 -5 -1 -10 4 -10 11 0 14 11 12 40 0 10 1 11 5
2 3 -6 10 -10 14 -7 13 8 3 -34 -11 -51 -10 -12 -14 -12 -20 -2 -7 10 -13 8
-30 -8 -21 -22 -19 -44 4 -44 8 0 8 3 -2 9 -18 11 -1 20 32 17 14 -2 26 0 25
3 -3 27 3 33 16 16 12 -17 13 -15 11 19 -2 21 -12 48 -23 60 -25 27 -26 141
-2 141 10 0 17 -15 22 -45 4 -29 5 -16 3 35 -2 44 -4 80 -4 80 -1 1 -16 1 -35
1 -23 0 -32 -4 -29 -13z m59 -35 c2 -13 0 -17 -3 -10 -4 10 -8 10 -19 1 -8 -6
-14 -8 -14 -4 0 4 8 14 18 21 10 8 12 13 5 14 -7 0 -13 5 -13 12 0 21 23 -9
26 -34z"/>
<path d="M4173 894 c9 -3 17 -13 16 -22 0 -11 -2 -12 -6 -4 -7 17 -20 15 -20
-3 0 -9 7 -14 16 -13 24 5 20 42 -4 45 -16 1 -16 1 -2 -3z"/>
<path d="M4218 893 c7 -3 16 -2 19 1 4 3 -2 6 -13 5 -11 0 -14 -3 -6 -6z"/>
<path d="M4751 884 c0 -11 3 -14 6 -6 3 7 2 16 -1 19 -3 4 -6 -2 -5 -13z"/>
<path d="M420 882 c0 -7 5 -12 10 -12 6 0 10 -5 10 -10 0 -6 -8 -10 -17 -8
-11 2 -17 -2 -15 -10 1 -8 -2 -11 -7 -8 -5 3 -7 16 -4 27 6 20 3 21 -23 15
-16 -4 -34 -12 -41 -18 -13 -11 -7 -38 9 -38 6 0 5 6 -2 15 -10 12 -9 16 3 21
18 7 37 -2 37 -17 0 -6 -4 -7 -10 -4 -5 3 -10 2 -10 -3 0 -4 20 -8 44 -8 31 1
42 5 39 13 -7 19 8 16 24 -4 13 -16 13 -16 4 4 -8 16 -8 23 2 26 6 3 3 6 -8 6
-12 1 -26 6 -33 13 -9 9 -12 9 -12 0z"/>
<path d="M2565 870 c3 -5 8 -10 11 -10 2 0 4 5 4 10 0 6 -5 10 -11 10 -5 0 -7
-4 -4 -10z"/>
<path d="M3991 864 c0 -11 3 -14 6 -6 3 7 2 16 -1 19 -3 4 -6 -2 -5 -13z"/>
<path d="M4775 850 c9 -46 23 -59 21 -21 -1 17 -7 36 -15 43 -11 11 -12 7 -6
-22z"/>
<path d="M100 860 c0 -5 7 -10 15 -10 8 0 15 -5 15 -11 0 -5 -4 -7 -10 -4 -5
3 -10 2 -10 -4 0 -5 4 -12 10 -16 5 -3 7 -12 3 -20 -8 -22 15 -18 27 5 9 16 8
19 -6 13 -13 -5 -15 -2 -10 13 3 10 2 24 -2 29 -10 14 -32 17 -32 5z"/>
<path d="M5535 859 c-4 -5 -1 -8 6 -7 6 2 13 -2 16 -9 3 -7 -3 -11 -14 -9 -16
4 -19 -2 -18 -44 0 -26 7 -55 15 -64 11 -15 11 -17 0 -14 -9 2 -15 -6 -16 -19
-1 -14 3 -20 13 -16 9 4 11 0 7 -11 -3 -9 -1 -16 5 -16 6 0 11 9 11 20 0 11
-7 20 -15 20 -8 0 -15 4 -15 10 0 5 6 7 14 4 17 -7 26 25 26 97 0 41 -4 58
-15 62 -8 4 -17 2 -20 -4z m22 -83 c-4 -9 -11 -16 -16 -16 -12 0 -9 33 4 42 6
5 5 8 -3 8 -8 0 -10 5 -6 12 10 16 29 -26 21 -46z m3 -30 c0 -11 -19 -15 -25
-6 -3 5 1 10 9 10 9 0 16 -2 16 -4z"/>
<path d="M4203 845 c-17 -7 -34 -11 -36 -8 -3 3 -4 -3 -2 -14 1 -10 8 -17 14
-15 6 1 11 -8 10 -20 0 -13 -3 -17 -6 -10 -2 6 -9 12 -14 12 -10 0 10 -40 25
-51 4 -4 -2 -14 -15 -22 -19 -14 -20 -17 -6 -22 9 -4 14 -14 10 -23 -4 -15 -3
-15 6 -2 6 8 11 10 11 5 0 -6 9 -11 20 -11 11 0 20 4 20 8 0 4 -9 8 -19 8 -23
0 -36 16 -21 25 6 4 8 11 5 16 -4 5 -1 9 5 9 7 0 9 -8 5 -20 -4 -11 -2 -20 4
-20 19 0 12 39 -9 50 -11 6 -20 15 -20 21 0 6 4 8 9 5 4 -3 7 6 5 19 -3 31 13
33 19 3 3 -15 4 -11 4 9 -1 27 -4 30 -18 22 -11 -5 -20 -5 -23 0 -4 5 7 12 24
16 16 4 30 11 30 16 0 11 2 11 -37 -6z"/>
<path d="M926 828 c3 -4 11 -5 19 -1 21 7 19 12 -4 10 -11 0 -18 -5 -15 -9z"/>
<path d="M2855 830 c3 -5 8 -10 11 -10 2 0 4 5 4 10 0 6 -5 10 -11 10 -5 0 -7
-4 -4 -10z"/>
<path d="M2820 813 c0 -10 5 -25 11 -33 8 -12 9 -9 4 10 -6 23 -5 24 9 7 14
-19 11 -52 -4 -42 -5 3 -6 -5 -2 -17 4 -16 2 -19 -8 -13 -10 6 -12 0 -7 -29 4
-25 2 -34 -5 -30 -6 4 -8 3 -4 -4 3 -5 3 -12 -1 -14 -5 -1 -18 -17 -29 -34
l-22 -30 57 0 58 1 -3 35 c-2 21 -11 42 -23 52 -15 11 -17 18 -9 21 10 4 10 6
0 6 -7 1 -10 5 -7 11 4 6 11 5 19 -3 8 -6 12 -15 10 -19 -2 -4 -1 -9 4 -12 4
-2 8 8 7 23 0 19 -4 27 -12 24 -7 -3 -13 2 -13 11 0 10 6 13 18 10 14 -5 14
-4 3 4 -13 9 -13 13 0 28 9 11 9 15 2 10 -7 -4 -13 -3 -13 3 0 5 3 11 8 14 4
2 1 2 -6 1 -7 -2 -15 3 -18 11 -8 21 -24 19 -24 -2z m40 -169 c13 -34 -2 -54
-41 -51 -27 2 -43 17 -17 17 15 0 48 30 48 43 0 6 -8 0 -19 -11 -10 -12 -22
-22 -26 -22 -5 0 2 11 15 25 13 14 25 25 27 25 2 0 8 -12 13 -26z"/>
<path d="M2840 615 c-8 -9 -8 -15 -2 -15 12 0 26 19 19 26 -2 2 -10 -2 -17
-11z"/>
<path d="M4733 823 c4 -6 1 -14 -5 -16 -7 -3 -3 -6 10 -6 18 -1 23 -6 20 -23
-2 -17 -9 -22 -23 -20 -11 2 -16 -1 -10 -5 11 -9 35 -49 35 -59 0 -3 -7 -4
-15 0 -9 3 -15 0 -15 -9 0 -8 7 -15 16 -15 8 0 12 -5 9 -10 -4 -6 -1 -9 7 -8
8 2 12 -5 10 -18 -1 -12 3 -21 10 -21 7 0 13 10 13 23 0 12 -3 20 -7 17 -5 -2
-8 0 -8 6 0 5 5 13 10 16 6 3 10 11 10 18 0 6 -7 2 -15 -9 -18 -24 -19 -7 0
26 8 14 14 32 14 40 0 9 -3 8 -8 -5 -7 -18 -9 -16 -15 12 -4 18 -5 36 -2 41 2
4 1 14 -5 22 -7 12 -9 12 -9 1 0 -11 -3 -11 -17 0 -9 8 -14 9 -10 2z m33 -78
c-3 -8 -1 -15 4 -15 6 0 10 -5 10 -12 0 -8 -6 -7 -16 4 -9 9 -13 21 -10 27 10
16 19 13 12 -4z"/>
<path d="M1144 808 c-3 -5 -10 -6 -15 -2 -16 10 -5 -20 13 -33 12 -10 16 -26
13 -68 -2 -37 2 -58 11 -66 16 -13 19 -33 4 -24 -5 3 -10 2 -10 -4 0 -5 8 -9
18 -8 10 0 18 9 18 18 0 10 -3 16 -7 13 -10 -6 -33 25 -24 34 4 4 10 1 12 -6
3 -6 9 -10 14 -6 5 3 -1 14 -13 24 -22 18 -22 19 -3 20 17 0 17 2 5 10 -13 8
-8 14 11 12 9 -1 4 36 -6 45 -4 5 -6 3 -2 -2 3 -6 2 -17 -2 -24 -6 -9 -10 -7
-14 8 -3 14 2 26 16 36 12 8 16 15 9 15 -7 0 -11 4 -8 8 2 4 -4 8 -15 8 -11 0
-23 -4 -25 -8z m28 -12 c7 4 8 2 4 -4 -4 -6 -13 -9 -21 -6 -8 4 -12 11 -8 17
5 8 8 7 11 -1 2 -7 9 -9 14 -6z"/>
<path d="M2285 810 c3 -5 8 -10 11 -10 2 0 4 5 4 10 0 6 -5 10 -11 10 -5 0 -7
-4 -4 -10z"/>
<path d="M2500 810 c-1 -8 -2 -21 -1 -28 1 -8 -3 -20 -10 -28 -10 -12 -9 -13
4 -8 20 7 25 23 16 54 -4 14 -8 18 -9 10z"/>
<path d="M2524 808 c-3 -5 1 -17 10 -27 20 -22 21 -38 1 -21 -9 8 -15 8 -15 2
0 -6 5 -12 10 -14 6 -2 12 -13 13 -26 3 -46 14 -20 15 36 0 45 -3 59 -14 59
-8 0 -17 -4 -20 -9z m26 -19 c0 -6 -4 -7 -10 -4 -5 3 -10 11 -10 16 0 6 5 7
10 4 6 -3 10 -11 10 -16z"/>
<path d="M3921 753 c-1 -73 -1 -73 27 -74 26 0 26 -1 5 -9 -13 -5 -23 -17 -22
-27 0 -16 1 -16 9 2 7 17 9 17 9 3 1 -20 16 -24 27 -6 5 7 3 8 -5 3 -14 -8 7
35 23 46 4 4 0 11 -9 17 -12 6 -15 14 -9 23 13 21 16 59 4 59 -5 0 -10 -9 -10
-19 0 -29 -11 -51 -24 -51 -7 0 -13 7 -13 15 0 9 6 14 14 11 9 -4 13 3 12 22
-1 17 -3 20 -6 10 -2 -10 -9 -18 -15 -18 -5 0 -8 6 -5 13 2 6 1 21 -4 32 -5
13 -8 -6 -8 -52z m49 -53 c0 -5 -9 -10 -21 -10 -11 0 -17 5 -14 10 3 6 13 10
21 10 8 0 14 -4 14 -10z"/>
<path d="M3365 750 c2 -44 15 -50 15 -7 0 21 -4 37 -8 37 -5 0 -8 -13 -7 -30z"/>
<path d="M130 758 c0 -4 4 -8 10 -8 5 0 7 -6 4 -14 -3 -8 -1 -17 4 -20 5 -3 9
7 9 22 -1 16 -7 29 -14 29 -7 0 -13 -4 -13 -9z"/>
<path d="M563 725 c-3 -9 -3 -18 -1 -21 3 -3 8 4 11 16 6 23 -1 27 -10 5z"/>
<path d="M600 730 c-8 -5 -11 -12 -7 -17 5 -4 12 -1 16 6 5 8 14 10 21 6 9 -5
11 -4 6 3 -9 14 -16 15 -36 2z"/>
<path d="M1115 730 c4 -6 -6 -10 -22 -11 -15 0 -23 -3 -16 -5 7 -3 10 -11 7
-17 -2 -7 4 -13 16 -14 11 -1 20 3 20 8 0 6 -4 7 -10 4 -5 -3 -10 -1 -10 4 0
6 7 11 15 11 8 0 15 7 15 15 0 8 -5 15 -11 15 -5 0 -7 -4 -4 -10z"/>
<path d="M4721 724 c0 -11 3 -14 6 -6 3 7 2 16 -1 19 -3 4 -6 -2 -5 -13z"/>
<path d="M4458 679 c-4 -34 -11 -55 -22 -61 -20 -11 -21 -35 -1 -35 8 0 13 2
11 5 -3 2 3 19 13 38 11 19 17 47 15 66 -6 48 -11 44 -16 -13z"/>
<path d="M1056 697 c3 -10 9 -15 12 -12 3 3 0 11 -7 18 -10 9 -11 8 -5 -6z"/>
<path d="M1970 706 c0 -2 7 -9 15 -16 9 -7 15 -8 15 -2 0 5 -7 12 -15 16 -8 3
-15 4 -15 2z"/>
<path d="M2505 688 c2 -10 -1 -18 -5 -18 -5 0 -11 8 -13 18 -4 15 -5 15 -6 0
-2 -25 13 -29 49 -14 25 10 29 14 15 20 -23 8 -27 8 -20 -4 3 -5 2 -10 -4 -10
-5 0 -11 6 -14 13 -2 6 -3 4 -2 -5z"/>
<path d="M584 670 c3 -19 5 -35 6 -35 1 0 3 -8 5 -17 5 -25 -12 -22 -20 3 -4
11 -9 18 -12 16 -2 -3 0 -15 7 -26 6 -12 7 -21 3 -21 -4 0 -8 -13 -8 -30 0
-16 5 -30 10 -30 6 0 3 -4 -5 -10 -8 -5 -11 -12 -7 -17 12 -11 27 19 21 41 -5
14 -3 16 7 11 11 -6 12 -5 2 6 -18 19 -16 32 4 25 10 -4 14 -4 10 0 -4 4 -1
14 6 22 9 12 9 16 0 19 -7 3 -13 14 -13 26 0 12 -5 29 -10 37 -7 11 -9 5 -6
-20z"/>
<path d="M610 689 c0 -5 5 -7 10 -4 6 3 10 8 10 11 0 2 -4 4 -10 4 -5 0 -10
-5 -10 -11z"/>
<path d="M1041 678 c0 -9 4 -20 10 -24 8 -4 7 -9 -2 -16 -12 -8 -12 -9 0 -6 8
2 15 12 17 21 1 9 -2 15 -6 12 -5 -3 -11 3 -13 12 -4 16 -5 16 -6 1z"/>
<path d="M560 665 c0 -8 4 -15 10 -15 5 0 7 7 4 15 -4 8 -8 15 -10 15 -2 0 -4
-7 -4 -15z"/>
<path d="M621 666 c-9 -11 -9 -16 0 -22 7 -4 9 -3 5 4 -3 5 0 12 6 15 7 2 10
7 7 11 -3 4 -12 0 -18 -8z"/>
<path d="M1973 666 c0 -6 6 -17 13 -24 10 -9 12 -7 11 8 -1 21 -24 36 -24 16z"/>
<path d="M2241 664 c0 -11 3 -14 6 -6 3 7 2 16 -1 19 -3 4 -6 -2 -5 -13z"/>
<path d="M3368 673 c7 -3 16 -2 19 1 4 3 -2 6 -13 5 -11 0 -14 -3 -6 -6z"/>
<path d="M3988 668 c-2 -7 -4 -28 -4 -45 1 -18 -3 -31 -9 -29 -5 2 -9 8 -8 13
1 5 -5 10 -13 10 -7 0 -14 -4 -14 -9 0 -4 5 -8 11 -8 6 0 8 -7 5 -16 -3 -8 -2
-12 3 -9 5 3 12 1 15 -4 4 -5 2 -12 -4 -16 -12 -7 15 -65 31 -65 6 0 1 12 -10
26 -14 17 -18 31 -12 38 5 6 10 14 10 19 1 4 1 8 2 10 2 9 6 97 4 97 -2 0 -5
-6 -7 -12z"/>
<path d="M1086 644 c5 -19 4 -25 -5 -20 -6 4 -11 2 -11 -4 0 -7 -7 -10 -15 -6
-8 3 -15 1 -15 -4 0 -14 23 -12 42 3 24 18 33 57 13 57 -12 0 -14 -6 -9 -26z"/>
<path d="M1915 660 c-3 -5 1 -10 10 -10 9 0 13 5 10 10 -3 6 -8 10 -10 10 -2
0 -7 -4 -10 -10z"/>
<path d="M2548 663 c7 -3 16 -2 19 1 4 3 -2 6 -13 5 -11 0 -14 -3 -6 -6z"/>
<path d="M169 647 c6 -8 9 -16 6 -18 -2 -3 5 -5 16 -6 12 -1 18 3 16 10 -3 7
-10 11 -16 10 -6 -2 -11 2 -11 7 0 6 -5 10 -11 10 -8 0 -9 -4 0 -13z"/>
<path d="M215 640 c5 -17 2 -23 -14 -27 -23 -6 -24 -8 -15 -40 4 -13 14 -23
25 -23 21 0 34 16 19 25 -8 5 -8 11 0 20 13 16 7 58 -9 63 -9 3 -11 -2 -6 -18z
m15 -30 c0 -5 -10 -15 -22 -21 -23 -12 -23 -12 -4 10 21 23 26 26 26 11z m-5
-40 c3 -5 1 -10 -4 -10 -6 0 -11 5 -11 10 0 6 2 10 4 10 3 0 8 -4 11 -10z"/>
<path d="M646 653 c-3 -3 -2 -11 2 -17 7 -12 9 -18 11 -41 0 -8 6 -15 12 -15
5 0 8 4 4 9 -3 5 -2 12 3 15 4 2 9 -5 9 -16 3 -29 19 -43 27 -23 3 9 2 14 -3
10 -17 -10 -18 20 -2 33 14 10 13 11 -4 5 -20 -6 -20 -6 -1 15 11 12 15 23 10
23 -51 7 -63 7 -68 2z m54 -11 c0 -10 -22 -32 -32 -32 -5 0 -3 9 4 20 13 20
28 27 28 12z"/>
<path d="M1450 643 c6 -14 7 -23 1 -23 -5 0 -9 -8 -8 -19 1 -21 31 -22 34 0 2
8 -6 25 -18 39 -18 23 -19 23 -9 3z m20 -33 c0 -5 -5 -10 -11 -10 -5 0 -7 5
-4 10 3 6 8 10 11 10 2 0 4 -4 4 -10z"/>
<path d="M1558 653 c23 -2 61 -2 85 0 23 2 4 4 -43 4 -47 0 -66 -2 -42 -4z"/>
<path d="M1798 653 c7 -3 16 -2 19 1 4 3 -2 6 -13 5 -11 0 -14 -3 -6 -6z"/>
<path d="M1878 653 c7 -3 16 -2 19 1 4 3 -2 6 -13 5 -11 0 -14 -3 -6 -6z"/>
<path d="M3378 644 c12 -8 20 -19 17 -23 -6 -11 22 -48 30 -39 13 12 -37 77
-60 78 -5 0 1 -7 13 -16z"/>
<path d="M4729 658 c-7 -23 -5 -38 4 -38 8 0 8 -3 2 -8 -14 -10 -17 -82 -4
-82 6 0 7 5 4 11 -4 6 1 17 11 24 17 13 17 16 4 25 -12 8 -13 12 -2 19 11 7
11 11 -2 23 -8 9 -12 18 -9 22 4 3 3 6 0 6 -4 0 -7 -1 -8 -2z m16 -78 c3 -5 1
-10 -4 -10 -6 0 -11 5 -11 10 0 6 2 10 4 10 3 0 8 -4 11 -10z"/>
<path d="M5078 653 c6 -2 18 -2 25 0 6 3 1 5 -13 5 -14 0 -19 -2 -12 -5z"/>
<path d="M5128 653 c6 -2 18 -2 25 0 6 3 1 5 -13 5 -14 0 -19 -2 -12 -5z"/>
<path d="M5218 653 c12 -2 32 -2 45 0 12 2 2 4 -23 4 -25 0 -35 -2 -22 -4z"/>
<path d="M3363 620 c1 -11 7 -22 13 -24 8 -3 12 3 11 14 -1 11 -7 22 -13 24
-8 3 -12 -3 -11 -14z"/>
<path d="M5043 623 c0 -17 5 -16 23 1 12 13 12 15 -4 13 -10 0 -19 -7 -19 -14z"/>
<path d="M1849 623 c0 -5 -2 -19 -4 -33 -2 -14 -1 -20 1 -13 3 7 13 9 21 6 13
-5 15 -2 10 11 -4 10 -7 22 -7 27 0 11 -20 12 -21 2z"/>
<path d="M2241 614 c0 -11 3 -14 6 -6 3 7 2 16 -1 19 -3 4 -6 -2 -5 -13z"/>
<path d="M2563 615 c0 -8 4 -12 9 -9 8 5 12 -10 9 -34 -3 -16 17 -42 32 -42 5
0 3 8 -6 18 -11 12 -13 22 -7 32 8 13 10 12 10 -2 0 -10 10 -23 22 -29 14 -8
18 -14 10 -17 -6 -2 -10 -8 -6 -13 8 -14 -20 -10 -42 6 -28 21 -40 18 -19 -5
11 -12 31 -20 49 -20 26 0 31 4 32 25 1 14 -2 25 -8 25 -5 0 -6 5 -2 12 4 7 3
8 -5 4 -6 -4 -14 -1 -17 7 -8 22 -61 58 -61 42z"/>
<path d="M5460 619 c0 -5 -4 -7 -10 -4 -5 3 -10 1 -10 -5 0 -7 -6 -10 -13 -7
-8 3 -14 -1 -14 -8 0 -7 6 -11 13 -8 7 2 14 -1 17 -9 2 -7 3 -5 2 5 -4 20 -1
21 26 7 15 -8 19 -7 19 4 0 10 -6 13 -17 9 -16 -6 -16 -5 -4 10 9 11 10 17 2
17 -6 0 -11 -5 -11 -11z"/>
<path d="M1820 608 c0 -9 -6 -19 -12 -21 -10 -4 -10 -6 0 -6 14 -1 28 26 18
36 -3 4 -6 -1 -6 -9z"/>
<path d="M1980 609 c0 -5 5 -7 10 -4 6 3 10 8 10 11 0 2 -4 4 -10 4 -5 0 -10
-5 -10 -11z"/>
<path d="M4251 606 c-8 -10 -9 -16 -1 -21 6 -4 9 -1 8 7 -2 7 3 12 10 10 8 -1
11 2 7 8 -8 13 -10 13 -24 -4z"/>
<path d="M5072 608 c-20 -20 -14 -26 23 -25 19 1 33 1 32 2 -1 0 -11 8 -23 17
-16 14 -23 15 -32 6z"/>
<path d="M1070 591 c-8 -6 -18 -7 -22 -5 -4 3 -8 0 -8 -5 0 -15 13 -14 36 4
21 16 17 20 -6 6z"/>
<path d="M4781 593 c0 -5 4 -16 7 -26 7 -16 9 -16 27 -1 17 13 17 15 3 10 -12
-3 -18 0 -18 9 0 8 -4 15 -10 15 -5 0 -10 -3 -9 -7z"/>
<path d="M1175 581 c-3 -5 -1 -12 5 -16 5 -3 10 1 10 9 0 18 -6 21 -15 7z"/>
<path d="M1746 573 c-6 -14 -5 -15 5 -6 7 7 10 15 7 18 -3 3 -9 -2 -12 -12z"/>
<path d="M1205 560 c5 -16 3 -19 -12 -14 -13 4 -15 3 -5 -4 8 -5 13 -12 13
-16 -3 -19 0 -26 10 -26 8 0 8 5 -1 15 -9 10 -9 15 -1 15 6 0 11 11 11 25 0
14 -5 25 -11 25 -6 0 -8 -9 -4 -20z"/>
<path d="M1244 568 c12 -7 21 -7 28 0 6 6 0 10 -18 10 -23 0 -24 -2 -10 -10z"/>
<path d="M1721 573 c-1 -8 -14 -10 -38 -7 -32 4 -34 3 -15 -5 32 -15 27 -21
-10 -16 -30 4 -31 4 -8 -5 20 -8 17 -9 -17 -5 -24 3 -43 3 -43 1 0 -2 -3 -13
-6 -23 -5 -17 -5 -17 6 0 6 9 16 17 22 17 7 0 7 -4 -1 -13 -8 -11 -2 -13 34
-12 24 0 47 4 51 8 10 10 26 9 20 -1 -2 -4 4 -9 15 -9 11 -1 17 2 14 8 -4 5
-2 9 3 9 5 0 9 7 9 15 0 8 -4 12 -9 9 -4 -3 -12 5 -17 18 -6 13 -10 18 -10 11z
m13 -39 c3 -8 1 -14 -4 -14 -6 0 -10 5 -10 11 0 8 -5 7 -16 -2 -9 -7 -23 -14
-33 -15 -13 -2 -12 0 4 12 11 9 19 19 18 24 -4 14 35 -1 41 -16z"/>
<path d="M3086 569 c2 -4 -5 -9 -16 -12 -11 -3 -20 0 -20 6 0 6 -3 7 -6 4 -4
-4 -1 -13 6 -22 8 -10 9 -15 1 -15 -6 0 -10 -3 -10 -7 4 -25 -3 -32 -31 -28
-26 3 -28 2 -18 -15 7 -10 16 -16 21 -13 5 3 3 9 -4 14 -10 6 -10 9 -2 9 18 0
27 -20 14 -33 -9 -9 -17 -8 -34 2 -13 8 -18 9 -11 1 12 -12 -3 -60 -19 -60 -5
0 -6 4 -3 9 10 15 -22 6 -42 -12 -10 -9 -21 -15 -23 -13 -2 2 -4 -6 -4 -18 0
-21 3 -22 28 -14 15 6 27 14 27 19 0 5 11 14 24 19 30 11 92 87 88 107 -2 9 1
12 7 8 7 -4 8 0 4 11 -5 13 -3 15 8 9 11 -7 11 -5 -1 10 -14 17 -13 18 3 12 9
-3 17 -3 17 2 0 5 9 11 20 14 11 3 20 1 20 -4 0 -5 -6 -9 -12 -10 -7 0 -3 -4
10 -9 28 -12 40 -39 21 -51 -11 -7 -11 -9 -1 -9 7 0 11 -4 8 -9 -3 -5 14 -31
38 -57 42 -47 44 -48 44 -22 0 18 -5 25 -14 21 -15 -6 -44 13 -44 29 0 5 4 7
8 4 5 -3 8 4 7 15 -1 11 -8 25 -16 29 -11 8 -12 13 -2 29 10 16 9 22 -4 33
-15 11 -16 11 -10 -4 3 -10 2 -18 -3 -18 -15 0 -22 20 -12 33 8 9 1 12 -28 12
-21 0 -37 -3 -34 -6z m98 -104 c-4 -8 -8 -15 -10 -15 -2 0 -4 7 -4 15 0 8 4
15 10 15 5 0 7 -7 4 -15z m-259 -92 c-26 -18 -30 -9 -8 16 11 14 19 17 22 10
2 -7 -4 -18 -14 -26z"/>
<path d="M3185 570 c-3 -5 -1 -10 4 -10 6 0 11 5 11 10 0 6 -2 10 -4 10 -3 0
-8 -4 -11 -10z"/>
<path d="M3444 561 c0 -16 4 -18 19 -9 10 5 29 7 42 4 13 -3 27 -1 31 5 5 8
-6 10 -35 7 -22 -2 -41 0 -41 4 0 5 -4 8 -8 8 -4 0 -8 -9 -8 -19z"/>
<path d="M3550 567 c0 -9 5 -17 11 -17 5 0 7 -4 4 -10 -3 -5 -1 -10 5 -10 6 0
8 -5 5 -10 -4 -6 -14 -1 -25 12 -11 13 -19 18 -20 13 0 -6 6 -17 13 -24 10
-10 8 -11 -7 -5 -13 5 -17 4 -12 -4 8 -13 47 -12 61 3 13 14 18 38 6 31 -5 -4
-17 4 -25 16 -13 18 -16 19 -16 5z"/>
<path d="M5131 571 c-10 -6 -9 -10 3 -14 8 -3 18 -2 21 3 8 13 -9 20 -24 11z"/>
<path d="M5324 565 c-7 -18 3 -35 22 -35 8 0 12 5 9 10 -4 6 -11 7 -17 4 -6
-4 -8 -1 -6 7 3 8 11 13 17 11 7 -1 10 2 6 8 -9 15 -25 12 -31 -5z"/>
<path d="M5460 570 c0 -5 4 -10 9 -10 10 0 9 -18 -1 -35 -3 -5 -2 -19 3 -30 4
-11 8 -14 8 -7 1 7 5 11 10 8 5 -3 11 0 14 8 4 10 -1 12 -16 9 -22 -5 -22 -5
-2 10 15 13 16 16 5 17 -11 0 -12 2 -3 8 9 6 7 11 -7 20 -12 7 -20 8 -20 2z"/>
<path d="M1546 555 c4 -8 14 -15 23 -15 13 0 13 2 2 9 -11 7 -11 9 0 14 8 3 5
6 -8 6 -16 1 -21 -3 -17 -14z"/>
<path d="M2721 561 c-7 -5 -22 -6 -34 -3 -13 3 -18 1 -13 -6 3 -6 2 -13 -4
-17 -6 -4 -8 -10 -5 -15 3 -5 15 0 25 10 11 11 26 20 33 20 6 -1 1 -8 -13 -16
-23 -14 -14 -13 28 3 14 6 15 4 4 -9 -9 -11 -10 -18 -2 -23 6 -4 9 -2 8 3 -2
6 2 9 7 9 6 -1 9 -6 7 -12 -2 -5 0 -6 5 -2 4 5 8 14 8 20 1 7 6 11 12 10 16
-3 9 30 -8 35 -12 3 -12 2 0 -6 8 -6 10 -12 3 -16 -6 -4 -15 2 -21 11 -6 10
-11 12 -11 6 0 -7 -5 -13 -11 -13 -5 0 -7 5 -4 10 8 12 4 12 -14 1z"/>
<path d="M5158 549 c-17 -18 -15 -49 4 -49 5 0 6 5 3 10 -3 6 1 10 10 10 10 0
13 -5 9 -12 -5 -8 0 -7 11 2 17 14 17 15 -8 18 -15 2 -25 7 -22 12 3 4 15 6
28 3 23 -6 22 -5 -3 13 -11 8 -19 6 -32 -7z"/>
<path d="M5286 555 c18 -13 18 -14 -6 -9 -21 4 -22 3 -5 -4 18 -9 18 -10 2
-13 -16 -4 -16 -5 2 -16 17 -11 19 -10 15 2 -5 11 -2 13 10 9 9 -3 13 -11 9
-17 -4 -6 -1 -7 7 -2 10 6 10 10 -2 19 -8 6 -14 19 -12 29 1 11 -4 17 -19 17
-20 0 -20 0 -1 -15z"/>
<path d="M1053 545 c0 -8 4 -15 9 -15 4 0 8 4 8 9 0 6 -4 12 -8 15 -5 3 -9 -1
-9 -9z"/>
<path d="M1230 550 c0 -5 5 -10 10 -10 6 0 10 5 10 10 0 6 -4 10 -10 10 -5 0
-10 -4 -10 -10z"/>
<path d="M1598 553 c7 -3 16 -2 19 1 4 3 -2 6 -13 5 -11 0 -14 -3 -6 -6z"/>
<path d="M1845 548 c1 -7 9 -12 16 -10 10 1 9 -2 -3 -11 -12 -10 -14 -17 -6
-31 7 -12 7 -21 -1 -29 -14 -14 -14 -30 0 -21 7 4 9 0 5 -14 -4 -11 -9 -30
-11 -41 -3 -17 -1 -19 14 -9 12 7 23 8 35 1 17 -9 17 -11 2 -16 -10 -4 -15 -3
-11 3 3 6 2 10 -4 10 -14 0 -23 -18 -12 -24 11 -7 61 14 61 26 0 4 -9 8 -19 8
-17 0 -25 11 -48 75 -3 6 7 -3 21 -19 14 -17 22 -35 19 -40 -3 -6 0 -5 8 3 10
9 11 15 3 18 -7 2 -10 13 -7 24 4 15 2 18 -11 13 -11 -4 -16 -1 -16 10 0 9 5
16 10 16 6 0 10 5 10 10 0 12 -22 9 -32 -5 -4 -6 -8 -2 -8 8 0 9 4 17 9 17 5
0 12 7 15 16 5 13 2 15 -13 11 -11 -3 -22 -1 -25 4 -2 5 -3 4 -1 -3z m28 -132
c3 -8 0 -17 -7 -19 -10 -4 -12 1 -9 14 6 23 9 24 16 5z"/>
<path d="M1263 535 c-10 -10 -10 -15 0 -23 9 -8 12 -4 13 14 1 13 1 24 0 24 0
-1 -6 -7 -13 -15z"/>
<path d="M1530 535 c7 -8 20 -14 29 -14 13 1 13 2 -1 6 -10 2 -18 9 -18 14 0
5 -5 9 -11 9 -8 0 -8 -5 1 -15z"/>
<path d="M3469 537 c-14 -11 -14 -14 -2 -26 12 -11 14 -10 11 5 -2 12 4 19 17
22 17 3 18 1 5 -8 -10 -8 -11 -10 -2 -8 8 2 13 8 13 13 0 15 -24 16 -42 2z"/>
<path d="M4812 541 c-10 -6 -10 -10 2 -21 9 -7 13 -16 10 -21 -3 -5 -2 -9 3
-8 20 3 27 -2 13 -11 -9 -6 -10 -10 -3 -10 23 0 24 21 2 41 -20 17 -21 22 -9
29 8 6 11 10 5 10 -5 0 -16 -4 -23 -9z"/>
<path d="M4851 532 c-1 -29 23 -25 26 4 3 18 2 18 -6 -1 l-8 -20 -5 20 c-5 18
-6 17 -7 -3z"/>
<path d="M5443 529 c-2 -23 3 -25 10 -4 4 8 3 16 -1 19 -4 3 -9 -4 -9 -15z"/>
<path d="M200 528 c0 -6 7 -8 15 -4 9 3 15 0 15 -8 0 -8 -6 -17 -12 -19 -9 -4
-9 -6 -1 -6 6 -1 9 -11 7 -23 -4 -21 -4 -21 4 -3 14 32 9 68 -10 71 -10 1 -18
-2 -18 -8z"/>
<path d="M696 525 c-11 -8 -15 -15 -8 -15 6 0 9 -6 6 -13 -3 -8 2 -14 10 -14
11 0 12 5 6 17 -6 11 -5 21 2 28 16 16 7 14 -16 -3z"/>
<path d="M1220 520 c0 -5 5 -10 10 -10 6 0 10 5 10 10 0 6 -4 10 -10 10 -5 0
-10 -4 -10 -10z"/>
<path d="M3120 526 c0 -2 8 -10 18 -17 15 -13 16 -12 3 4 -13 16 -21 21 -21
13z"/>
<path d="M5660 519 c0 -5 -4 -8 -9 -4 -5 3 -13 0 -17 -6 -5 -8 -3 -9 5 -5 8 5
14 0 18 -13 3 -12 9 -21 14 -21 13 0 11 14 -3 29 -11 12 -10 13 6 7 16 -5 17
-4 6 9 -15 18 -20 19 -20 4z"/>
<path d="M5720 513 c0 -14 2 -15 9 -4 6 9 11 10 15 2 4 -6 12 -11 19 -11 12 0
-23 29 -35 30 -5 0 -8 -8 -8 -17z"/>
<path d="M5225 510 c4 -6 11 -8 16 -5 14 9 11 15 -7 15 -8 0 -12 -5 -9 -10z"/>
<path d="M3921 494 c0 -11 3 -14 6 -6 3 7 2 16 -1 19 -3 4 -6 -2 -5 -13z"/>
<path d="M521 483 c-9 -16 -12 -16 -21 -3 -10 15 -11 14 -15 -27 -2 -22 -1
-22 34 -7 48 20 60 32 41 44 -21 14 -28 12 -39 -7z m35 -5 c4 -7 4 -10 -1 -6
-4 4 -14 3 -22 -4 -11 -8 -12 -7 -7 6 7 19 20 21 30 4z m-51 -18 c3 -5 1 -10
-4 -10 -6 0 -11 5 -11 10 0 6 2 10 4 10 3 0 8 -4 11 -10z"/>
<path d="M1001 483 c-9 -16 -12 -16 -21 -3 -10 15 -11 14 -15 -27 -2 -22 -1
-22 34 -7 48 20 60 32 41 44 -21 14 -28 12 -39 -7z m35 -5 c4 -7 4 -10 -1 -6
-4 4 -14 3 -22 -4 -11 -8 -12 -7 -7 6 7 19 20 21 30 4z m-51 -18 c3 -5 1 -10
-4 -10 -6 0 -11 5 -11 10 0 6 2 10 4 10 3 0 8 -4 11 -10z"/>
<path d="M1216 491 c-3 -5 1 -12 9 -15 8 -3 14 -9 13 -14 -4 -10 63 -82 76
-82 5 0 14 -7 21 -16 11 -15 12 -15 18 5 3 11 0 24 -5 28 -7 4 -8 1 -3 -6 6
-10 3 -11 -12 -2 -11 6 -23 8 -27 6 -3 -3 -4 -2 -1 2 9 11 79 10 87 -1 4 -6
10 -7 15 -3 14 15 -20 25 -74 23 -50 -2 -58 2 -54 28 1 5 -4 6 -12 3 -8 -3
-13 3 -14 15 -2 16 1 17 13 8 11 -10 14 -9 14 4 0 10 -4 15 -9 12 -5 -4 -12 0
-14 6 -4 10 -6 10 -6 1 -1 -7 -6 -13 -12 -13 -5 0 -7 5 -4 10 3 6 2 10 -4 10
-5 0 -12 -4 -15 -9z"/>
<path d="M2326 491 c-7 -11 67 -91 84 -91 6 0 9 -4 6 -9 -3 -5 5 -16 18 -25
22 -14 25 -14 38 2 11 15 11 16 -3 5 -22 -18 -32 -4 -11 16 10 9 11 12 3 6
-12 -8 -13 -6 -8 8 4 11 3 16 -3 12 -6 -3 -10 -14 -10 -23 0 -14 -2 -15 -9 -2
-6 8 -7 18 -5 22 3 4 -2 5 -10 2 -9 -3 -16 -1 -16 6 0 6 -4 8 -10 5 -5 -3 -10
-2 -10 4 0 5 3 11 8 14 4 2 2 2 -5 1 -7 -2 -15 1 -18 6 -5 9 6 14 25 12 3 0 6
8 6 18 0 10 -6 16 -16 15 -8 -2 -17 -4 -20 -4 -3 -1 2 -6 10 -11 12 -8 11 -10
-7 -10 -25 0 -39 16 -21 23 9 4 10 6 1 6 -6 1 -14 -3 -17 -8z"/>
<path d="M4011 483 c-7 -7 -7 -13 -2 -13 5 0 12 -9 16 -20 3 -10 23 -33 44
-49 37 -29 38 -30 37 -8 -1 14 -7 22 -19 21 -9 -1 -17 4 -17 12 0 8 -5 13 -11
12 -6 -2 -18 7 -26 20 -15 21 -14 22 11 22 14 0 26 -4 26 -10 0 -5 -7 -7 -15
-4 -16 6 -21 -11 -6 -20 13 -8 32 19 26 37 -7 17 -47 17 -64 0z m89 -83 c0 -5
-2 -10 -4 -10 -3 0 -8 5 -11 10 -3 6 -1 10 4 10 6 0 11 -4 11 -10z"/>
<path d="M4867 480 c-3 -11 -2 -22 2 -24 4 -3 8 6 9 20 2 29 -4 31 -11 4z"/>
<path d="M5641 483 c-1 -6 -9 -14 -18 -16 -14 -4 -13 -5 3 -6 12 0 25 -8 28
-17 8 -22 8 -26 -4 -19 -5 3 -10 -1 -10 -9 0 -21 16 -28 28 -13 6 8 4 25 -9
52 -9 22 -18 35 -18 28z"/>
<path d="M4741 448 c-1 -20 -5 -39 -10 -42 -8 -6 -5 -65 4 -74 3 -3 -1 -12 -8
-20 -10 -13 -9 -14 3 -10 8 3 15 13 16 24 0 10 3 30 7 44 4 14 3 45 -2 70 l-9
45 -1 -37z m3 -78 c-6 -6 -10 -3 -10 10 0 13 4 16 10 10 7 -7 7 -13 0 -20z"/>
<path d="M5471 467 c-23 -12 -36 -52 -20 -63 13 -8 21 16 9 31 -8 9 -8 15 0
20 14 9 40 -1 40 -15 0 -6 -4 -8 -10 -5 -5 3 -10 -3 -10 -13 0 -22 -23 -45
-34 -34 -4 4 -6 0 -4 -8 4 -21 30 -39 46 -33 7 3 11 11 8 19 -3 7 -2 15 2 17
4 2 1 2 -5 1 -7 -2 -13 0 -13 5 0 5 11 12 25 15 23 6 36 36 16 36 -5 0 -7 9
-4 20 6 23 -10 26 -46 7z m44 -47 c-3 -5 -11 -10 -16 -10 -6 0 -7 5 -4 10 3 6
11 10 16 10 6 0 7 -4 4 -10z m-30 -49 c3 -5 1 -12 -4 -15 -5 -3 -11 1 -15 9
-6 16 9 21 19 6z"/>
<path d="M706 462 c-3 -5 1 -21 9 -35 8 -15 15 -31 15 -35 1 -4 7 -6 14 -4 14
2 17 -38 4 -48 -4 -3 -3 -12 2 -20 10 -15 13 -5 13 43 0 9 6 17 14 17 8 0 12
-4 8 -9 -3 -5 -2 -12 2 -14 5 -3 9 8 10 25 0 17 -2 27 -6 22 -9 -13 -31 -16
-31 -3 0 5 -4 8 -9 5 -12 -8 -32 18 -34 43 -1 23 -3 25 -11 13z"/>
<path d="M3923 430 c0 -25 2 -35 4 -22 2 12 2 32 0 45 -2 12 -4 2 -4 -23z"/>
<path d="M5760 458 c0 -8 6 -20 13 -27 8 -10 8 -12 0 -7 -6 3 -14 2 -18 -3 -3
-6 -11 -9 -18 -7 -7 1 -9 1 -4 -1 14 -8 7 -22 -8 -17 -8 4 -17 -1 -21 -10 -3
-9 -10 -13 -16 -10 -5 3 -1 15 9 27 l18 22 -22 -19 c-18 -15 -20 -22 -12 -33
9 -9 9 -13 0 -13 -26 0 -8 -15 19 -16 28 -2 29 -1 13 13 -17 14 -17 14 1 9 16
-5 17 -4 7 8 -10 12 -9 15 11 13 13 0 26 -5 29 -10 10 -15 31 31 27 60 -3 27
-28 46 -28 21z m14 -59 c-3 -5 -10 -7 -15 -3 -5 3 -7 10 -3 15 3 5 10 7 15 3
5 -3 7 -10 3 -15z"/>
<path d="M532 441 c-8 -4 -13 -11 -13 -15 3 -18 0 -20 -9 -6 -7 11 -10 11 -10
2 0 -7 -4 -11 -8 -8 -10 6 -8 -71 2 -81 4 -5 6 -2 4 6 -1 7 3 16 10 18 9 4 10
-1 2 -21 -5 -14 -7 -26 -4 -26 11 0 21 46 14 61 -5 8 -4 22 1 30 7 11 9 10 9
-6 1 -18 2 -18 11 3 5 13 7 28 4 32 -3 5 1 11 7 13 7 3 9 6 3 6 -5 0 -16 -3
-23 -8z m-22 -41 c0 -5 -5 -10 -11 -10 -5 0 -7 5 -4 10 3 6 8 10 11 10 2 0 4
-4 4 -10z"/>
<path d="M1013 443 c-9 -3 -10 -10 -3 -23 13 -25 -13 -48 -34 -31 -12 10 -14
7 -11 -19 3 -18 -1 -33 -8 -35 -27 -9 -175 -10 -170 -1 4 5 1 6 -5 2 -7 -4
-12 -10 -12 -14 0 -8 197 -5 210 3 6 3 10 1 10 -6 0 -7 3 -10 6 -6 3 3 -1 16
-10 29 -20 28 -20 39 -1 32 8 -4 13 -10 10 -14 -3 -5 -1 -11 3 -14 11 -6 35
70 27 83 -3 5 1 12 7 14 7 3 9 5 3 5 -5 0 -16 -2 -22 -5z"/>
<path d="M5619 448 c-8 -28 -5 -49 8 -59 15 -13 15 -12 3 11 -16 29 -16 30 2
41 10 7 10 9 1 9 -7 0 -13 -1 -14 -2z"/>
<path d="M4880 415 c13 -14 29 -25 36 -25 7 0 18 -8 23 -17 9 -16 10 -16 11
-1 0 9 8 19 18 21 16 4 16 5 -1 6 -10 0 -16 5 -13 10 3 5 -8 7 -25 6 -16 -1
-36 4 -44 11 -24 25 -29 15 -5 -11z m65 -15 c3 -5 1 -10 -4 -10 -6 0 -11 5
-11 10 0 6 2 10 4 10 3 0 8 -4 11 -10z"/>
<path d="M971 421 c-9 -6 -6 -10 10 -14 28 -8 34 -3 16 11 -7 6 -19 7 -26 3z"/>
<path d="M247 408 c-5 -13 0 -16 21 -12 l27 4 -25 -15 c-15 -9 -19 -14 -10
-15 13 0 13 -1 0 -10 -8 -5 -10 -10 -4 -10 7 0 11 -7 10 -16 -1 -14 14 -17
111 -18 61 0 109 2 106 7 -2 4 -40 7 -84 7 -61 0 -79 3 -79 14 0 19 -25 27
-39 13 -6 -6 -11 -8 -11 -5 0 4 7 14 16 22 17 18 9 40 -11 32 -8 -3 -15 0 -18
7 -2 6 -6 4 -10 -5z m67 -73 c3 -8 -4 -10 -20 -7 -13 2 -22 8 -19 11 7 12 34
9 39 -4z"/>
<path d="M1427 399 c4 -13 8 -18 11 -10 2 7 -1 18 -6 23 -8 8 -9 4 -5 -13z"/>
<path d="M2880 408 c0 -4 4 -8 9 -8 6 0 12 4 15 8 3 5 -1 9 -9 9 -8 0 -15 -4
-15 -9z"/>
<path d="M4123 386 c-1 -17 1 -23 4 -13 2 9 8 17 12 17 4 0 8 6 8 13 0 29 -23
12 -24 -17z"/>
<path d="M4972 415 c2 -1 17 -10 35 -19 29 -14 31 -14 29 1 -2 12 -13 18 -35
19 -18 1 -31 1 -29 -1z"/>
<path d="M3260 380 c5 -10 8 -19 7 -21 -1 -2 0 -3 2 -1 11 6 6 39 -5 39 -9 0
-10 -5 -4 -17z"/>
<path d="M5523 393 c4 -3 1 -13 -6 -22 -11 -14 -10 -14 6 -2 20 15 22 31 5 31
-6 0 -8 -3 -5 -7z"/>
<path d="M4993 378 c1 -6 -4 -13 -12 -16 -9 -3 -11 0 -6 9 7 12 5 12 -6 1 -12
-11 -12 -14 1 -22 10 -6 17 -4 23 5 13 24 27 17 27 -12 0 -20 3 -24 11 -16 8
8 8 17 0 31 -11 21 -42 38 -38 20z"/>
<path d="M1375 370 c3 -5 8 -10 11 -10 2 0 4 5 4 10 0 6 -5 10 -11 10 -5 0 -7
-4 -4 -10z"/>
<path d="M1406 364 c-4 -9 -4 -19 -1 -22 2 -3 7 3 11 12 4 9 4 19 1 22 -2 3
-7 -3 -11 -12z"/>
<path d="M1360 351 c0 -5 7 -12 16 -15 14 -5 15 -4 4 9 -14 17 -20 19 -20 6z"/>
<path d="M1431 348 c0 -9 -4 -18 -8 -21 -5 -2 -2 -2 5 -1 6 2 12 -1 12 -7 0
-6 4 -8 9 -4 5 3 12 1 16 -5 8 -13 25 -13 25 0 0 6 -7 10 -16 10 -8 0 -12 4
-9 10 3 5 0 7 -9 4 -8 -3 -16 2 -19 13 -4 15 -5 15 -6 1z"/>
<path d="M3924 345 c6 -19 2 -20 -115 -17 -67 2 -125 0 -130 -5 -4 -4 53 -8
127 -8 134 0 145 3 123 35 -8 12 -9 11 -5 -5z"/>
<path d="M1506 333 c-3 -4 -6 -11 -6 -17 0 -6 5 -4 10 4 9 15 11 13 14 -12 1
-15 116 -24 116 -10 0 5 -12 7 -26 4 -16 -3 -24 -1 -21 4 3 6 -3 10 -13 11
-11 1 -22 -2 -25 -8 -9 -14 -25 -11 -19 5 5 14 -19 29 -30 19z"/>
<path d="M1613 326 c0 -8 6 -12 14 -9 7 3 10 9 7 14 -8 14 -21 11 -21 -5z"/>
<path d="M1663 333 c9 -3 17 -8 17 -13 0 -5 -8 -7 -17 -3 -10 3 -15 3 -12 -1
10 -11 50 -16 44 -5 -4 5 -2 9 4 9 5 0 11 -6 14 -12 2 -8 8 -9 13 -4 5 5 4 11
-4 13 -6 3 -10 8 -8 11 2 4 -12 7 -33 8 -20 1 -28 -1 -18 -3z"/>
<path d="M1737 323 c4 -11 8 -12 13 -3 5 8 9 9 11 1 2 -6 14 -8 27 -5 25 7 30
21 7 21 -8 0 -15 -4 -15 -9 0 -5 -6 -6 -12 -1 -22 13 -37 12 -31 -4z"/>
<path d="M2500 330 c20 -13 33 -13 25 0 -3 6 -14 10 -23 10 -15 0 -15 -2 -2
-10z"/>
<path d="M2549 323 c-11 -15 -11 -16 1 -5 19 16 31 15 24 -3 -4 -10 0 -15 12
-15 14 0 16 2 6 9 -8 4 -13 12 -12 17 3 17 -17 14 -31 -3z"/>
<path d="M2680 331 l45 -7 -53 -4 c-29 -3 -58 0 -65 5 -6 6 -3 0 7 -12 16 -19
29 -23 78 -23 33 0 57 4 54 9 -3 5 3 11 14 14 11 3 20 1 20 -4 0 -15 17 -10
24 7 4 11 2 15 -8 11 -7 -3 -19 0 -26 6 -10 9 -11 9 -6 0 8 -14 -10 -18 -18
-5 -3 5 -29 9 -58 9 l-53 1 45 -7z m55 -20 c-3 -6 -30 -10 -58 -9 l-52 1 45 4
c25 3 49 8 54 13 12 12 20 5 11 -9z"/>
<path d="M2820 324 c0 -8 5 -12 10 -9 6 4 8 11 5 16 -9 14 -15 11 -15 -7z"/>
<path d="M3300 330 c18 -12 30 -13 30 -2 0 4 -10 9 -22 9 -18 2 -20 0 -8 -7z"/>
<path d="M3343 324 c0 -7 9 -15 19 -18 15 -3 18 -1 13 12 -4 12 1 10 18 -6 29
-27 119 -31 143 -7 9 9 11 15 4 15 -6 0 -8 6 -4 13 4 7 3 9 -2 4 -5 -5 -9 -13
-9 -19 0 -6 -22 -12 -50 -13 -37 -3 -43 -1 -25 5 l25 8 -26 1 c-14 1 -29 4
-33 8 -13 13 -73 10 -73 -3z m71 -10 c3 -8 2 -12 -4 -9 -6 3 -10 10 -10 16 0
14 7 11 14 -7z"/>
<path d="M3590 331 c0 -6 4 -13 10 -16 6 -3 7 1 4 9 -7 18 -14 21 -14 7z"/>
<path d="M3620 329 c0 -5 5 -7 10 -4 6 3 10 8 10 11 0 2 -4 4 -10 4 -5 0 -10
-5 -10 -11z"/>
<path d="M4068 322 c2 -7 11 -11 19 -8 8 3 17 6 19 6 2 0 4 4 4 9 0 5 -11 8
-24 7 -15 0 -22 -6 -18 -14z"/>
<path d="M4210 331 c0 -10 80 -24 88 -16 3 3 0 11 -8 18 -10 9 -11 9 -6 -1 7
-12 -15 -11 -61 4 -7 2 -13 0 -13 -5z"/>
<path d="M4337 334 c-13 -13 -7 -24 12 -24 24 0 36 16 20 26 -8 4 -9 3 -5 -4
4 -7 3 -12 -3 -12 -5 0 -11 5 -13 11 -2 5 -7 7 -11 3z"/>
<path d="M4395 330 c-3 -4 15 -7 39 -7 25 1 43 4 40 6 -8 8 -74 8 -79 1z"/>
<path d="M5066 328 c3 -4 0 -8 -7 -8 -7 0 -9 -3 -6 -6 4 -4 13 -2 20 4 8 7 17
9 20 5 4 -3 7 -1 7 5 0 6 -9 10 -19 9 -11 0 -17 -5 -15 -9z"/>
<path d="M5098 318 c-17 -17 -16 -18 18 -12 21 3 34 2 31 -4 -8 -12 95 -14
113 -2 11 7 6 9 -20 5 -28 -4 -31 -3 -15 5 18 9 17 10 -7 7 -33 -5 -38 10 -5
16 12 2 -2 4 -30 3 -30 0 -48 -3 -40 -8 9 -6 7 -8 -5 -8 -9 0 -18 4 -20 8 -1
4 -11 0 -20 -10z m82 -3 c0 -9 -6 -12 -15 -9 -8 4 -12 10 -9 15 8 14 24 10 24
-6z"/>
<path d="M5247 329 c7 -7 15 -10 18 -7 3 3 -2 9 -12 12 -14 6 -15 5 -6 -5z"/>
<path d="M5314 328 c3 -10 1 -18 -4 -18 -6 0 -10 5 -10 10 0 6 -5 10 -11 10
-8 0 -8 -5 1 -15 14 -17 56 -20 65 -4 4 6 13 8 21 5 7 -3 16 -1 20 5 11 19 -4
21 -35 6 -28 -14 -32 -14 -42 1 -10 16 -10 16 -5 0z"/>
<path d="M1993 322 c-6 -4 37 -6 95 -4 163 4 181 9 42 10 -69 1 -130 -2 -137
-6z"/>
<path d="M3488 323 c7 -3 16 -2 19 1 4 3 -2 6 -13 5 -11 0 -14 -3 -6 -6z"/>
<path d="M4040 324 c0 -15 20 -31 45 -36 11 -2 19 -9 18 -14 -1 -6 8 -10 20
-9 12 2 21 8 20 14 -4 14 3 14 30 0 27 -15 79 -20 71 -7 -4 5 -14 8 -23 5 -9
-2 -22 2 -29 10 -7 7 -17 11 -23 8 -5 -4 -9 -2 -9 4 0 17 -36 22 -64 10 -23
-11 -28 -10 -41 7 -8 10 -15 14 -15 8z m97 -33 c-1 -16 -5 -18 -19 -10 -23 12
-24 20 -1 12 11 -4 14 -3 9 5 -4 7 -3 12 3 12 5 0 9 -9 8 -19z"/>
<path d="M3560 309 c0 -5 5 -7 10 -4 6 3 10 8 10 11 0 2 -4 4 -10 4 -5 0 -10
-5 -10 -11z"/>
<path d="M4451 296 c-7 -8 -21 -12 -31 -9 -12 3 -20 0 -20 -6 0 -7 -4 -9 -10
-6 -5 3 -10 1 -10 -4 0 -6 7 -11 15 -11 8 0 15 5 15 10 0 6 5 10 11 10 5 0 8
-3 6 -7 -3 -5 6 -9 19 -9 13 -1 21 2 18 7 -3 5 1 9 8 9 10 0 10 2 -1 9 -11 7
-11 9 0 14 8 3 9 6 3 6 -6 1 -17 -5 -23 -13z"/>
<path d="M4033 293 c4 -6 3 -14 -3 -18 -6 -4 -7 -11 -4 -17 4 -6 0 -14 -7 -19
-12 -7 -12 -9 0 -9 11 0 9 -4 -5 -15 -10 -8 -15 -15 -10 -15 5 0 2 -8 -5 -17
-12 -16 -12 -17 1 -7 8 6 25 10 38 8 21 -4 22 -2 9 11 -13 12 -14 22 -8 54 1
2 7 -2 15 -8 12 -10 17 -8 25 8 7 13 8 22 1 26 -5 3 -10 3 -10 -1 0 -4 -10 1
-22 12 -12 10 -18 14 -15 7z m37 -47 c0 -6 -7 -3 -14 6 -7 10 -17 14 -21 10
-5 -4 -5 -1 -1 6 6 10 11 10 22 1 8 -6 14 -17 14 -23z"/>
<path d="M4725 280 c3 -5 8 -10 11 -10 2 0 4 5 4 10 0 6 -5 10 -11 10 -5 0 -7
-4 -4 -10z"/>
<path d="M4278 263 c7 -3 16 -2 19 1 4 3 -2 6 -13 5 -11 0 -14 -3 -6 -6z"/>
<path d="M4323 263 c9 -2 23 -2 30 0 6 3 -1 5 -18 5 -16 0 -22 -2 -12 -5z"/>
<path d="M4660 250 c0 -9 7 -25 15 -37 13 -19 13 -23 -1 -37 -20 -20 -19 -20
-21 6 -2 16 0 19 6 9 5 -8 11 -9 15 -3 3 5 -4 18 -16 28 -12 11 -18 13 -14 6
5 -9 0 -26 -14 -45 -20 -26 -21 -29 -5 -23 11 4 22 1 27 -6 6 -11 8 -10 8 0 0
7 4 11 10 7 5 -3 16 8 25 25 8 16 11 30 6 30 -6 0 -17 12 -25 28 -9 15 -15 20
-16 12z"/>
<path d="M4716 245 c-3 -9 -11 -13 -17 -9 -8 4 -9 3 -5 -4 4 -7 11 -12 16 -12
9 0 23 31 16 37 -2 2 -6 -3 -10 -12z"/>
<path d="M4055 210 c-3 -6 1 -7 9 -4 18 7 21 14 7 14 -6 0 -13 -4 -16 -10z"/>
<path d="M4588 173 c7 -3 16 -2 19 1 4 3 -2 6 -13 5 -11 0 -14 -3 -6 -6z"/>
<path d="M4560 161 c0 -6 5 -11 10 -11 16 0 12 -20 -10 -47 -11 -14 -20 -20
-20 -13 0 10 -3 10 -15 0 -11 -10 -15 -10 -15 0 0 27 -24 1 -26 -28 -3 -33 10
-50 22 -31 4 8 3 9 -4 5 -7 -4 -12 -2 -12 3 0 6 5 11 11 11 5 0 7 6 3 13 -4 6
-4 9 1 5 4 -4 14 -3 22 3 16 14 17 5 3 -21 -8 -16 -8 -18 4 -14 9 3 15 9 14
12 -4 14 14 52 23 52 6 0 7 -5 3 -12 -4 -6 -3 -8 2 -5 16 9 15 64 -1 77 -10 9
-15 9 -15 1z"/>
<path d="M4616 131 c-3 -4 -10 -21 -16 -37 -11 -28 -11 -29 7 -9 10 11 24 25
31 31 10 9 10 13 -2 17 -9 4 -18 2 -20 -2z"/>
<path d="M3976 106 c5 -13 19 -22 42 -27 4 -1 12 -9 18 -17 9 -13 11 -13 11 1
0 15 -18 28 -42 32 -5 0 -9 6 -7 13 1 7 -5 12 -13 12 -8 0 -12 -6 -9 -14z"/>
<path d="M4090 90 c-10 -6 -11 -10 -2 -10 6 0 12 -7 12 -16 0 -8 5 -12 10 -9
8 5 8 11 1 19 -6 7 -8 16 -4 19 9 10 0 8 -17 -3z"/>
<path d="M4124 89 c-3 -6 -2 -14 4 -18 7 -4 5 -11 -7 -18 -15 -9 -21 -7 -35 9
-10 11 -20 17 -24 13 -4 -4 -1 -10 7 -13 11 -4 11 -6 0 -14 -11 -8 -11 -9 1
-5 8 2 21 -2 28 -10 18 -18 36 -17 28 2 -3 8 -1 15 4 15 5 0 12 -9 15 -20 3
-11 11 -20 17 -20 6 0 6 6 -2 15 -7 8 -9 15 -4 15 5 0 2 5 -6 10 -13 9 -13 10
0 10 12 1 11 3 -3 11 -9 6 -15 14 -12 20 4 5 4 9 1 9 -3 0 -8 -5 -12 -11z"/>
<path d="M4186 8 c7 -10 41 -10 47 0 3 4 -8 7 -23 7 -16 1 -26 -3 -24 -7z"/>
<path d="M4405 10 c-3 -5 1 -10 10 -10 9 0 13 5 10 10 -3 6 -8 10 -10 10 -2 0
-7 -4 -10 -10z"/>
</g>
</svg>
