<?xml version="1.0" standalone="no"?>
<!DOCTYPE svg PUBLIC "-//W3C//DTD SVG 20010904//EN" "http://www.w3.org/TR/2001/REC-SVG-20010904/DTD/svg10.dtd">
<svg version="1.0" xmlns="http://www.w3.org/2000/svg" width="582.000000pt" height="154.000000pt" viewBox="0 0 582.000000 154.000000" preserveAspectRatio="xMidYMid meet" fill="none" stroke="currentColor">
    <g transform="translate(0.000000,154.000000) scale(0.100000,-0.100000)">
        <path d="M1950 1300 l0 -240 150 0 150 0 0 240 0 240 -150 0 -150 0 0 -240z"/>
        <path d="M3620 1370 l0 -171 -37 8 c-21 4 -72 8 -114 7 -62 0 -86 -6 -140 -31-35 -16 -84 -49 -109 -71 l-45 -41 373 -1 372 0 0 235 0 235 -150 0 -150 0 0-170z"/>
        <path d="M1460 1205 c-70 -20 -125 -53 -175 -104 l-39 -41 317 0 317 0 -16 25 c-22 33 -98 88 -154 109 -62 25 -182 30 -250 11z"/>
        <path d="M2583 1205 c-91 -25 -230 -111 -210 -131 4 -4 80 -7 170 -6 89 1 234 2 321 2 l160 0 -35 36 c-89 93 -266 136 -406 99z"/>
        <path d="M4240 1206 c-69 -19 -117 -45 -168 -91 l-47 -43 325 4 c179 3 346 4 373 4 l47 0 0 61 0 60 -157 -1 c-87 0 -176 4 -198 9 -53 14 -119 13 -175 -3z"/>
        <path d="M5079 1206 c-62 -18 -141 -62 -175 -97 l-28 -29 305 0 304 1 -48 44 c-26 24 -73 53 -105 66 -70 27 -188 34 -253 15z"/>
        <path d="M4 1183 c4 -10 15 -44 23 -76 l17 -58 149 3 c82 1 150 5 152 8 2 3-5 35 -14 70 l-18 65 -158 3 c-147 2 -157 1 -151 -15z"/>
        <path d="M506 1145 c-9 -30 -19 -61 -22 -70 -5 -13 14 -15 156 -15 126 0 161 3 157 13 -2 6 -12 38 -21 70 l-17 57 -119 0 -119 0 -15 -55z"/>
        <path d="M970 1197 c0 -1 -9 -32 -19 -70 l-20 -67 153 0 152 0 18 58 c10 31 21 63 23 70 4 9 -30 12 -151 12 -86 0 -156 -1 -156 -3z"/>
        <path d="M4354 1032 l-362 -2 -21 -50 c-12 -27 -28 -76 -35 -107 l-14 -58 -1
108 -1 108 -378 -1 c-208 -1 -383 -4 -389 -8 -5 -4 -19 -25 -31 -47 l-20 -40
-17 43 c-10 23 -22 42 -29 42 -6 0 -173 0 -370 0 -322 0 -360 -2 -371 -17 -18
-24 -45 -104 -55 -160 -6 -40 -8 -29 -9 65 l-1 112 -150 0 -150 0 -1 -62 0
-63 -20 64 -20 63 -495 -3 -494 -4 -14 -50 c-8 -27 -18 -62 -21 -77 -4 -16
-10 -28 -14 -28 -4 0 -18 35 -32 78 -25 75 -26 77 -57 76 -18 -1 -97 -2 -177
-3 l-144 -1 -22 -72 c-12 -40 -25 -77 -29 -81 -4 -5 -16 27 -27 70 l-19 78
-152 3 c-84 1 -152 -1 -152 -5 0 -5 47 -161 103 -348 l103 -340 123 0 123 0
59 169 c33 93 61 171 63 173 2 3 29 -75 60 -171 l57 -176 122 0 123 0 18 57
c10 32 43 137 74 233 l57 175 7 -80 c11 -139 61 -237 158 -314 127 -100 343
-116 543 -39 61 23 77 33 73 46 -3 10 -17 67 -32 127 -14 61 -27 111 -29 113
-2 2 -31 -9 -66 -23 -128 -54 -245 -55 -305 -3 -19 17 -34 34 -34 39 0 5 105
9 239 9 182 0 241 3 244 13 3 6 6 -70 6 -170 l1 -183 150 0 150 0 1 193 c1
184 1 190 14 131 63 -291 364 -426 637 -288 64 32 146 115 172 172 11 23 22
42 25 42 4 0 17 -22 30 -50 50 -104 138 -177 251 -206 74 -19 166 -14 227 11
24 10 39 12 41 5 2 -6 57 -10 149 -10 l145 0 -6 27 c-3 16 -8 100 -11 188 -5
156 -5 159 10 105 39 -139 111 -230 223 -283 58 -27 78 -32 147 -32 44 0 92 3
108 8 38 10 35 -9 -5 -33 -23 -14 -51 -20 -93 -20 -77 0 -117 12 -189 55 -32
19 -61 35 -65 35 -4 0 -25 -57 -49 -127 l-42 -128 23 -18 c81 -63 193 -91 347
-85 143 6 206 28 286 100 101 93 133 194 134 423 1 139 1 140 15 88 45 -166
167 -281 330 -312 68 -13 214 -6 283 14 69 20 152 55 152 64 -1 15 -58 242
-62 246 -2 2 -40 -10 -84 -27 -138 -54 -264 -42 -312 30 l-14 22 245 0 245 0
7 74 c9 94 -1 175 -29 251 l-23 60 -319 -3 c-175 -1 -328 -2 -340 -2 -24 0
-46 -42 -75 -142 l-18 -63 0 106 c-1 104 -2 107 -24 105 -12 0 -185 -2 -383
-4z m-2729 -102 c18 -20 17 -20 -66 -20 l-84 1 24 19 c32 27 101 27 126 0z
m1124 5 c70 -36 99 -201 53 -292 -29 -56 -66 -83 -113 -83 -46 0 -93 36 -115
88 -19 46 -20 168 -1 213 32 77 109 109 176 74z m806 1 c57 -24 69 -69 66
-255 -1 -35 -7 -49 -35 -77 -29 -29 -41 -34 -79 -34 -88 0 -133 73 -125 205 7
109 49 165 131 174 4 1 23 -5 42 -13z m845 -1 c53 -27 60 -48 60 -173 l0 -114
-34 -34 c-27 -27 -42 -34 -74 -34 -78 0 -125 68 -125 180 0 70 16 120 51 152
40 39 78 46 122 23z m831 5 c38 -21 18 -30 -63 -30 l-83 1 24 19 c26 22 90 27
122 10z"/>
<path d="M5652 523 c-19 -7 -42 -58 -42 -93 0 -42 47 -90 88 -90 83 0 122 112
59 170 -20 19 -74 26 -105 13z"/>
</g>
</svg>
