<?xml version="1.0" standalone="no"?>
<!DOCTYPE svg PUBLIC "-//W3C//DTD SVG 20010904//EN"
 "http://www.w3.org/TR/2001/REC-SVG-20010904/DTD/svg10.dtd">
<svg version="1.0" xmlns="http://www.w3.org/2000/svg"
 width="151.000000pt" height="151.000000pt" viewBox="0 0 151.000000 151.000000"
 preserveAspectRatio="xMidYMid meet">
<metadata>
Created by potrace 1.14, written by Peter Selinger 2001-2017
</metadata>
<g transform="translate(0.000000,151.000000) scale(0.100000,-0.100000)"
fill="#000000" stroke="none">
<path d="M333 1332 c-32 -5 -73 -58 -74 -95 -1 -18 -1 -58 0 -89 1 -49 -2 -58
-17 -58 -10 0 -42 -12 -70 -26 -158 -79 -124 -313 50 -340 36 -6 38 -8 36 -40
l-2 -34 -54 0 -55 0 7 -42 c4 -23 18 -57 32 -75 38 -50 80 -63 205 -63 l108 0
32 -60 c68 -127 207 -216 353 -224 183 -10 346 84 426 247 25 51 42 72 71 89
108 61 132 227 46 320 -32 35 -99 68 -137 68 -21 0 -49 15 -94 50 -35 28 -94
61 -132 76 -58 22 -81 25 -159 22 l-91 -3 1 70 0 70 75 1 c41 1 79 2 84 3 5 0
6 24 4 52 -9 87 3 84 -331 84 -161 0 -302 -1 -314 -3z m450 -132 c-1 -58 -2
-116 -3 -130 l0 -25 -136 -3 c-76 -1 -141 -5 -146 -8 -23 -14 11 -24 83 -24
63 0 79 -3 79 -15 0 -26 -46 -46 -104 -46 -47 0 -56 -3 -56 -18 0 -14 8 -17
35 -16 20 1 35 -3 35 -9 -1 -18 -29 -50 -46 -52 -26 -4 -40 -22 -22 -29 13 -5
14 -11 5 -36 -10 -25 -17 -29 -49 -29 -38 0 -60 -17 -39 -30 7 -4 23 -5 37 -2
22 4 24 1 24 -37 l0 -41 -95 0 -95 0 0 35 c0 30 5 37 33 49 124 53 149 223 46
310 -17 14 -41 29 -55 32 -23 6 -24 9 -24 96 0 81 2 91 24 111 23 21 31 22
247 22 l224 0 -2 -105z m152 90 c16 -13 16 -60 1 -61 -53 -3 -109 0 -117 8
-14 14 6 61 28 65 27 6 74 -1 88 -12z m-591 -266 c79 -58 74 -194 -10 -249
-34 -22 -111 -26 -150 -8 -41 20 -84 87 -84 133 0 123 144 196 244 124z m1015
-270 c13 -30 14 -84 1 -104 -7 -11 -10 -6 -10 21 0 20 -6 55 -14 77 -12 32
-12 40 -2 36 7 -3 18 -16 25 -30z m-883 -160 c1 -11 4 -37 8 -57 l7 -37 -102
0 c-133 0 -177 22 -202 102 -5 15 8 16 141 15 141 -2 147 -3 148 -23z"/>
<path d="M415 1219 c-4 -6 -4 -13 -1 -16 7 -7 284 -5 296 2 28 18 -15 25 -145
25 -91 0 -146 -4 -150 -11z"/>
<path d="M418 1129 c-31 -19 12 -27 144 -25 119 1 143 4 143 16 0 12 -23 15
-138 15 -76 0 -143 -2 -149 -6z"/>
<path d="M269 924 c-46 -45 -47 -46 -72 -30 -14 10 -28 13 -31 8 -7 -12 35
-62 53 -62 16 0 121 103 121 119 0 23 -27 10 -71 -35z"/>
</g>
</svg>
